<svg id="e3f2f83f-eeb0-44cb-a64c-d1459e2523c1" data-name="圖層 1" xmlns="http://www.w3.org/2000/svg" viewBox="0 0 100 100"><defs><style>.b50f161a-6784-4046-8341-05844b6eb72c{fill:#fff;}.ec123cdd-2bba-44e7-b809-e306369d0489{fill:#00263d;}.eead2361-2465-4a03-86c4-d0bfe5c9d6a0{fill:#e5e5e5;}</style></defs><rect class="b50f161a-6784-4046-8341-05844b6eb72c" x="0.5" y="0.5" width="99" height="99" rx="4.5"/><path class="ec123cdd-2bba-44e7-b809-e306369d0489" d="M12.79,76.79a27.58,27.58,0,0,0-2.62-1.44l-.57.74c.85.47,2,1.14,2.59,1.54Zm-.72,3.78c-.61-.39-1.77-1-2.59-1.41l-.57.76c.85.44,2,1.12,2.58,1.51Zm-2,7.2a50.52,50.52,0,0,0,2.54-4.49l-.76-.69a41.3,41.3,0,0,1-2.64,4.48Zm9.61-1.37h-5V83.51h5Zm1.9-6.15v-1H17.79V76.82A22.38,22.38,0,0,0,21,76l-.82-.81a34.42,34.42,0,0,1-6.78,1.24,4.73,4.73,0,0,1,.28.88c1-.09,2.06-.22,3.08-.37v2.26h-4v1h4v2.3h-3V88h1v-.59h5v.52h1V82.55H17.79v-2.3Zm2.56,2.42v-1H26v1Zm0-2.71H26v1H24.18Zm4.54,0v1H26.89V80Zm0,2.71H26.89v-1h1.83Zm3.68-4.25c0-1,0-2,0-3.07h-1c0,1.07,0,2.09,0,3.07H29.76v1h1.63c-.12,2.63-.49,4.88-1.7,6.54v-.07c-.94.11-1.89.21-2.8.29V85.05h2.74v-.79H26.89V83.4H29.6V79.24H26.89v-.88h3v-.81h-3v-1a25.84,25.84,0,0,0,2.73-.41l-.52-.8a42.12,42.12,0,0,1-6,.69,3.18,3.18,0,0,1,.26.77c.82,0,1.73-.08,2.63-.15v.92h-3v.81h3v.88H23.33V83.4H26v.86H23.3v.79H26v1.21l-3,.28.15.91c1.57-.17,3.74-.41,5.87-.66a6.08,6.08,0,0,1-.62.49,3.4,3.4,0,0,1,.77.74c2.47-1.85,3.11-4.9,3.28-8.62h2c-.14,5.08-.31,6.93-.63,7.33a.51.51,0,0,1-.5.23c-.27,0-.88,0-1.56-.07a2.71,2.71,0,0,1,.3,1,10.47,10.47,0,0,0,1.69,0,1.12,1.12,0,0,0,.94-.52c.48-.59.6-2.53.76-8.4,0-.14,0-.53,0-.53Zm6-.17h1.51v1H38.38Zm3.82,0v1H40.82v-1Zm-2.31,4.13h.93V80.59a10.75,10.75,0,0,1,1.83,1.22l.46-.62A9.86,9.86,0,0,0,41.21,80l-.39.48V80H43.1V77.56H40.82v-.71h2.63v-.8H40.82v-.88h-.93v.88H37.12v.8h2.77v.71H37.53V80h2a7.11,7.11,0,0,1-2.68,1.84,4.24,4.24,0,0,1,.6.68,8,8,0,0,0,2.41-1.79Zm3.89,3.16h4v-.81h-4V83.64h4.93v-.87H37.92v.87h4.84v3H40.28V84.38h-1v2.31H37v.9H49.61v-.9H43.78Zm1.47-7.92h2.43a5.81,5.81,0,0,1-1.12,2.12A7.27,7.27,0,0,1,45.25,77.62Zm4.32,0v-.87h-3.9a10.33,10.33,0,0,0,.49-1.35l-.95-.21a7.58,7.58,0,0,1-2,3.55,5.14,5.14,0,0,1,.7.7,10.23,10.23,0,0,0,.83-1A8.13,8.13,0,0,0,46,80.34a7.62,7.62,0,0,1-2.71,1.45,5,5,0,0,1,.6.74A8.74,8.74,0,0,0,46.57,81a7.62,7.62,0,0,0,2.55,1.59,3.24,3.24,0,0,1,.59-.8,7.35,7.35,0,0,1-2.51-1.42,7.53,7.53,0,0,0,1.47-2.75Zm11,5.68v2.9H54.1v-2.9Zm-7.55,4.65H54.1v-.79h6.5v.73h1.08V82.37H53.05Zm1.11-8.22A15.44,15.44,0,0,0,57.36,77a16.14,16.14,0,0,0,3.41,2.76Zm3.34-4.58a14.45,14.45,0,0,1-6.62,5.06,3.8,3.8,0,0,1,.76.91A21,21,0,0,0,53.78,80v.72h7v-1A20.62,20.62,0,0,0,63.06,81a3.32,3.32,0,0,1,.72-.94A16.33,16.33,0,0,1,58,76.22c.15-.21.3-.41.44-.63ZM70.43,85.26c-.33-.44-1.8-2.22-2.34-2.81,0-.27,0-.53.08-.78h2.27v-1H68.21c0-.3,0-.61,0-.89V78.43h1.94v-.94H68.23V75.32h-1v2.17h-2v.94h2v1.39c0,.28,0,.59,0,.89H64.94v1h2.25A7.3,7.3,0,0,1,64.85,87a3.36,3.36,0,0,1,.73.73,7.65,7.65,0,0,0,2.33-4.24c.61.81,1.47,1.94,1.8,2.5Zm1.49-4.13h4v1.39h-4Zm0-2.24h4v1.39h-4Zm0-2.22h4V78h-4Zm3.67,10.12c-.29,0-.33,0-.33-.34v-3h1.66V75.72H71v7.74h1.33a3.93,3.93,0,0,1-2.94,3.71,2.82,2.82,0,0,1,.59.78c2.35-.85,3.08-2.38,3.34-4.49h1v3c0,1,.22,1.26,1.18,1.26h1.16c.74,0,1-.35,1.12-1.66a2.67,2.67,0,0,1-.87-.38c0,1-.1,1.12-.35,1.12Zm3.39.83c2-.09,5-.26,7.91-.41l0-.8-8,.37Zm6.2-3.56H83.39v-.67h1.79Zm0,1.25H83.39v-.68h1.79Zm-4.49-.68h1.8v.68h-1.8Zm0-1.24h1.8v.67h-1.8Zm-.86-.58v3.08h6.23V82.81Zm5.34-3.92H83.33v-.75h1.84Zm-1.84-2.15h1.84v.68H83.33Zm2.75-.66H83.33v-.9h-1v.9H79.81v.66h2.57v.68H78.91v.72h3.47v.75H79.75v.66h2.63v.63H79.65v.66h2.73v.64H79v.73h7.87v-.73H83.33v-.64h2.94v-.66H83.33v-.63h2.75V78.14H87v-.72h-.87Zm2.34.77h-1v7.7h1Zm1.69-1.4v11.2c0,.22-.1.29-.34.31s-.92,0-1.73,0a3.8,3.8,0,0,1,.32,1,7.12,7.12,0,0,0,2.17-.18c.41-.18.56-.48.56-1.12V75.45Z"/><path class="eead2361-2465-4a03-86c4-d0bfe5c9d6a0" d="M95,100H5a5,5,0,0,1-5-5V5A5,5,0,0,1,5,0H95a5,5,0,0,1,5,5V95A5,5,0,0,1,95,100ZM5,1A4,4,0,0,0,1,5V95a4,4,0,0,0,4,4H95a4,4,0,0,0,4-4V5a4,4,0,0,0-4-4Z"/><path class="ec123cdd-2bba-44e7-b809-e306369d0489" d="M74,28.3H69.67a0,0,0,0,1,0,0V26.65a1.82,1.82,0,0,0-1.43-1.82,1.75,1.75,0,0,0-2.06,1.72v1.71a0,0,0,0,1,0,0H60.74a1.6,1.6,0,0,1-1.59-1.59V24a0,0,0,0,0,0,0,3.5,3.5,0,0,1,0-7,0,0,0,0,0,0,0V15.24a2.66,2.66,0,0,1,2.66-2.66H74a2.66,2.66,0,0,1,2.66,2.66v10.4A2.66,2.66,0,0,1,74,28.3Z"/><path class="ec123cdd-2bba-44e7-b809-e306369d0489" d="M49.83,19.56h.59v4.37a3.5,3.5,0,0,0,0,7v2.62H46.93a3.5,3.5,0,1,0-7,0h-5.2A15.15,15.15,0,0,1,49.83,19.56Z"/><path class="ec123cdd-2bba-44e7-b809-e306369d0489" d="M40.25,46.39a15.06,15.06,0,0,1-5.54-11.11h7V33.54a1.75,1.75,0,1,1,3.49,0v1.74h5.24v3.5a3.49,3.49,0,0,0,0,7v7H44.31v-3Z"/><path class="ec123cdd-2bba-44e7-b809-e306369d0489" d="M50.42,63.22a4.38,4.38,0,0,1-4.28-3.5H54.7A4.38,4.38,0,0,1,50.42,63.22Z"/><path class="ec123cdd-2bba-44e7-b809-e306369d0489" d="M55.66,58.49H45.18a.88.88,0,0,1,0-1.75H55.66a.88.88,0,0,1,0,1.75Z"/><path class="ec123cdd-2bba-44e7-b809-e306369d0489" d="M57.41,55.53h-14a.88.88,0,0,1,0-1.75h14a.88.88,0,0,1,0,1.75Z"/><path class="ec123cdd-2bba-44e7-b809-e306369d0489" d="M60.59,46.39l-4.06,3.33v3H52.17V44H50.42a1.75,1.75,0,0,1,0-3.5h1.75V35.28h5.24V33.54a1.75,1.75,0,1,1,3.49,0v1.74h5.23A15.06,15.06,0,0,1,60.59,46.39Z"/></svg>