<svg id="b567bb84-8c7e-4672-a5c8-755a605e8b9a" data-name="圖層 1" xmlns="http://www.w3.org/2000/svg" viewBox="0 0 100 100"><defs><style>.f03be22c-f790-4e76-860a-31e6f23046a7{fill:#fff;}.a4e34fdc-d3d5-42e1-9a1f-9355ddc4d772,.f2960a3f-5a20-45c5-8fcb-a1799d5b652a{fill:#00263d;}.f2960a3f-5a20-45c5-8fcb-a1799d5b652a{fill-rule:evenodd;}.b8f11667-1f44-4905-97f5-722b42699df1{fill:#e5e5e5;}</style></defs><rect class="f03be22c-f790-4e76-860a-31e6f23046a7" x="0.5" y="0.5" width="99" height="99" rx="4.5"/><path class="a4e34fdc-d3d5-42e1-9a1f-9355ddc4d772" d="M19.61,75.44a11.26,11.26,0,0,1-3.46,3,4.79,4.79,0,0,1,.76.72,14.12,14.12,0,0,0,3.67-3.28Zm.46,3.75a11.63,11.63,0,0,1-3.9,3.12,4.62,4.62,0,0,1,.73.74A13.59,13.59,0,0,0,21,79.58Zm-5.4-2H10.43v-.83h4.24Zm0,1.54H10.43v-.86h4.24Zm1-3.08H9.43v3.78h6.26Zm.48,4.67H13.12a6.66,6.66,0,0,0-.48-.87l-1,.24c.1.18.21.41.32.63H8.75v.84h7.42Zm-6.09,4.51a6,6,0,0,1-1.37,2c.22.14.57.43.74.57A8.07,8.07,0,0,0,11,85.1Zm.45-2.23h4v1.18h-4Zm5,1.92V81.86h-6v2.66H12v2.3c0,.12,0,.18-.2.18s-.62,0-1.19,0a3.15,3.15,0,0,1,.32.85,4.66,4.66,0,0,0,1.64-.15c.35-.14.45-.36.45-.87V84.52Zm-1.81.65A13.06,13.06,0,0,1,15,87.24l.79-.41a12.72,12.72,0,0,0-1.32-2Zm6.62-2a10.56,10.56,0,0,1-4.6,3.87,4.5,4.5,0,0,1,.73.79,12.07,12.07,0,0,0,4.83-4.28Zm5.24-8a16.46,16.46,0,0,1-3.23,5.56,8.61,8.61,0,0,1,.58,1,14,14,0,0,0,1.21-1.54V87.9h1V78.63a22,22,0,0,0,1.43-3.12Zm2.24,3.69h2.3v1.4h-2.3ZM31.16,77a8.31,8.31,0,0,1-.82,1.14H27.73A13.83,13.83,0,0,0,28.67,77Zm2.26,3.33H31.08v-1.4h2.34Zm.4,1.1a23.42,23.42,0,0,1-2.49,1.47,5.26,5.26,0,0,0-1.27-1.57l.22-.2h4.1v-3h-3a11.78,11.78,0,0,0,1.12-1.56l-.6-.45-.2.06H29.2c.16-.28.32-.55.46-.81l-1-.18a10.32,10.32,0,0,1-3.2,3.73,3,3,0,0,1,.66.68c.26-.21.51-.41.75-.63v2.15h2.27a12.1,12.1,0,0,1-3.39,1.65,4,4,0,0,1,.56.68,13.88,13.88,0,0,0,3.1-1.64,5.08,5.08,0,0,1,.63.68,12.16,12.16,0,0,1-4.12,2.16,4.69,4.69,0,0,1,.56.69,15.13,15.13,0,0,0,3.95-2.26,3.92,3.92,0,0,1,.32.77,12,12,0,0,1-4.93,2.77,4.2,4.2,0,0,1,.62.75A14.25,14.25,0,0,0,31,84.66a2.63,2.63,0,0,1-.33,2.06.84.84,0,0,1-.72.27,9.42,9.42,0,0,1-1-.06,2,2,0,0,1,.25.9,6.86,6.86,0,0,0,.89,0,1.51,1.51,0,0,0,1.24-.47c.66-.62.84-2.26.25-3.84.2-.08.41-.15.61-.25A7.4,7.4,0,0,0,34.68,87a3.26,3.26,0,0,1,.67-.77A6.3,6.3,0,0,1,33,82.91,15.41,15.41,0,0,0,34.54,82Zm7.25-.17-1.62.46V79h1.62V78H39.45v-2.8h-1V78H36.59v1h1.82v3c-.75.21-1.45.4-2,.52l.28,1.07,1.73-.51v3.63c0,.21-.07.26-.26.26s-.76,0-1.4,0a4.29,4.29,0,0,1,.32,1A4.43,4.43,0,0,0,39,87.73c.35-.17.49-.45.49-1v-4l1.75-.52Zm1.77,4.93V82.84h4.67v3.31Zm4.67-7.51v3.21H42.84V78.64Zm-2.33-1c.25-.69.53-1.56.75-2.34l-1.19-.14a17.8,17.8,0,0,1-.6,2.48H41.82V87.9h1v-.77h4.67v.67h1.05V77.65Zm12.08,2.1V79h3.12v.72Zm3.12-3.32v.67H57.26v-.67ZM57.26,77.7h3.12v.72H57.26Zm3.12,3.46h1v-.61h1.83v-.8H61.36V76.43h1.5v-.76H55v.76h1.32v3.32h-1.7v.8h5.8Zm-6.16.25-.28-.92-.83.5V78.92h1.18V78H53.11v-2.8h-1V78H50.61v1h1.52v2.66c-.63.37-1.2.7-1.66,1l.36,1c.39-.25.86-.5,1.3-.8v3.92c0,.18-.05.23-.22.23s-.64,0-1.2,0a3.91,3.91,0,0,1,.3,1,3.76,3.76,0,0,0,1.64-.19c.34-.17.46-.44.46-1V82.1Zm3.12,1.53H55.87v-.73h1.47ZM55.87,85.8V85h1.47v.71Zm1.47-1.46H55.87v-.77h1.47Zm-2.91-2.13h.63v3.64l-.85.06.11.8,3-.31v1.52h.81V82.21h.49v-.77H54.43Zm5.84,3.53v-.8h1.51v.8Zm1.51-3.53v.72H60.27v-.72Zm-1.51,1.35h1.51v.75H60.27Zm3,2.18h-.67V82.21h.64v-.77H58.87v.77h.57v3.53h-.7v.77h3v1.41h.83V86.51h.67Zm13-10.46h-1V81c0,.18-.05.23-.26.23s-.87,0-1.64,0a3.28,3.28,0,0,1,.34.86,6.34,6.34,0,0,0,2-.16c.38-.15.51-.37.51-.92Zm-2.65.58h-.94v4.56h.94ZM67.8,79.23H65.36v2.6h.84v-1.9h1.6V82.2h.91V79.93h1.72v1c0,.11,0,.15-.15.15a6.86,6.86,0,0,1-.94,0,2.8,2.8,0,0,1,.28.67,3.76,3.76,0,0,0,1.32-.12c.3-.13.37-.31.37-.7V79.23h-2.6v-.74h3v-.76h-3v-.85h2.46v-.73H68.71v-1H67.8v1H66.48a5.51,5.51,0,0,0,.31-.76L66,75.2a6.16,6.16,0,0,1-1.11,2.11,5.86,5.86,0,0,1,.74.41,6.06,6.06,0,0,0,.53-.84H67.8v.85H64.65v.76H67.8Zm7.83,4.49a20.07,20.07,0,0,1-2.48,1.46,5.44,5.44,0,0,1-1.3-1.58h5.22v-.87H71.73a8.64,8.64,0,0,0-.58-1.13l-1,.28c.14.25.31.57.43.85h-5.9v.87h4.87a16.29,16.29,0,0,1-5.11,1.8,4,4,0,0,1,.57.77,16.43,16.43,0,0,0,2.42-.7v.63a1.2,1.2,0,0,1-.58,1.07,3.14,3.14,0,0,1,.36.71V88c.27-.17.71-.29,4.38-1.16a5.7,5.7,0,0,1,0-.8l-3.21.69v-1.6a12,12,0,0,0,2.45-1.41,7.69,7.69,0,0,0,5.79,4.09,3.2,3.2,0,0,1,.57-.84,9,9,0,0,1-3.4-1.22,19.66,19.66,0,0,0,2.53-1.44ZM81.9,75.2a15.66,15.66,0,0,1-3.46,5.56,4.93,4.93,0,0,1,.6,1,14.52,14.52,0,0,0,1.39-1.66v7.78h1V78.52a21.6,21.6,0,0,0,1.43-3Zm9.39,3.27v-1H85.47c.28-.62.54-1.25.77-1.89l-1-.27a14.8,14.8,0,0,1-3.08,5.37,5.69,5.69,0,0,1,.82.7,15.5,15.5,0,0,0,2-2.92h1v9.45h1V84.54h4.19v-1H87V81.44h4v-1H87v-2Z"/><path class="f2960a3f-5a20-45c5-8fcb-a1799d5b652a" d="M65,18.15v2.5H60v-2.5a2.51,2.51,0,0,0-2.5-2.5h-15a2.5,2.5,0,0,0-2.5,2.5v2.5H35v-2.5a2.5,2.5,0,0,0-5,0v40a2.5,2.5,0,1,0,5,0v-2.5h5v2.5a2.51,2.51,0,0,0,2.5,2.5h15a2.51,2.51,0,0,0,2.5-2.5v-2.5h5v2.5a2.5,2.5,0,1,0,5,0v-40a2.5,2.5,0,1,0-5,0ZM40,50.65H35v-5h5Zm-5-10h5v-5H35Zm5-10H35v-5h5Zm20,20h5v-5H60Zm5-10H60v-5h5Zm-5-10h5v-5H60Z"/><path class="b8f11667-1f44-4905-97f5-722b42699df1" d="M95,100H5a5,5,0,0,1-5-5V5A5,5,0,0,1,5,0H95a5,5,0,0,1,5,5V95A5,5,0,0,1,95,100ZM5,1A4,4,0,0,0,1,5V95a4,4,0,0,0,4,4H95a4,4,0,0,0,4-4V5a4,4,0,0,0-4-4Z"/></svg>