<svg id="b5021e28-19f7-4e4d-ad6d-b1d05ba30b62" data-name="圖層 1" xmlns="http://www.w3.org/2000/svg" viewBox="0 0 100 100"><defs><style>.b33602d9-0db4-483b-bfcc-fa75b70ac687{fill:#fff;}.e6c2cb31-f209-4a9a-a55a-8b8207ab4d17{fill:#00263d;}.b0881482-f674-4abc-aeeb-36807116bde2{fill:#e5e5e5;}</style></defs><rect class="b33602d9-0db4-483b-bfcc-fa75b70ac687" x="0.5" y="0.5" width="99" height="99" rx="4.5"/><path class="e6c2cb31-f209-4a9a-a55a-8b8207ab4d17" d="M12.54,85.38H10.69V81.25h1.85Zm.88.93v-6H10.69A23.48,23.48,0,0,0,11.58,77h2V76H8.82v1h1.76a13.34,13.34,0,0,1-2,5.42A5.6,5.6,0,0,1,9,83.54a9.06,9.06,0,0,0,.76-1.17v5.06h.89V86.31ZM15,82.59V81.18h2v.71c0,.24,0,.46,0,.7ZM15,79h2v1.4H15Zm5.07,0v1.4H18V79Zm0,3.6H18c0-.24,0-.46,0-.7v-.71h2.09Zm1,.83V78.17H18V76.85h3.35V75.9H13.82v.95H17v1.32H14.1v5.25h2.82a4.52,4.52,0,0,1-.71,2A4.54,4.54,0,0,1,15,83.81l-.88.22a6.1,6.1,0,0,0,1.5,2,6.3,6.3,0,0,1-2.48,1.23,5.27,5.27,0,0,1,.62.83,6.79,6.79,0,0,0,2.61-1.49A10.72,10.72,0,0,0,21,88.11a3.34,3.34,0,0,1,.6-.91A10.71,10.71,0,0,1,17,85.92a5.54,5.54,0,0,0,.94-2.5Zm13.09-5.31H33v-1h1.13Zm0,1.74H33v-1h1.13Zm-4.66-1h1.08v1H29.48Zm0-1.69h1.08v1H29.48Zm2.83,1.69v1H31.26v-1Zm-1.05-.7v-1h1.05v1ZM35,76.37H33.12V75.31h-.85v1.06h-1V75.31h-.85v1.06H28.67v4.22H35Zm.35,4.95h-7v.78h7ZM30,83.49h3.71v1.17H30Zm4.68,1.87V82.77h-5.6v2.59Zm-7.32-4H23.66v-.92h3.67Zm-3-4.75h2.39v.9H25.16v2.17h-.87Zm1.48,3.07V78.14h.91v1.51Zm1.78-3.86H23.43v3.86h-.57v2h.69V84a6.47,6.47,0,0,1-.82,3.61,3.08,3.08,0,0,1,.73.56,7.54,7.54,0,0,0,1-4.17V82.07h2.2v2.37c-.86.45-1.67.87-2.27,1.12l.39.74c.59-.34,1.22-.73,1.88-1.13V87c0,.14-.05.2-.2.2s-.63,0-1.18,0a3.59,3.59,0,0,1,.3.8,4.64,4.64,0,0,0,1.57-.14c.3-.15.39-.38.39-.83V81.65h.64v-2h-.6Zm-1,7.95A10,10,0,0,0,25,82.6l-.48.48A12.52,12.52,0,0,1,26,84.31ZM33.35,87c.21-.4.46-.89.7-1.32l-1-.28c-.14.45-.39,1.11-.6,1.6H31.15c-.14-.45-.39-1.08-.6-1.56l-.82.24A8.7,8.7,0,0,1,30.22,87h-2v.81h7.24V87Zm11.1-9.94v.14c0,.72-.34,1.68-4,2.17a3.38,3.38,0,0,1,.56.77c2.46-.38,3.57-1,4-1.71a6.81,6.81,0,0,0,3.81,1.64,3.74,3.74,0,0,1,.58-.83,6.3,6.3,0,0,1-4.1-1.54,2.6,2.6,0,0,0,0-.46v-.18h2.23a8.41,8.41,0,0,1-.66,1.1l.83.3a13.32,13.32,0,0,0,1.17-2l-.7-.24-.16,0H43.43c.09-.25.21-.5.29-.77l-.94-.21a5.9,5.9,0,0,1-1.61,2.66,4.57,4.57,0,0,1,.79.54,7.41,7.41,0,0,0,1-1.4Zm-4.8,7.12h7v1h-7Zm0-1.62h7v1h-7Zm0-1.63h7v1h-7Zm-1,4.92H47.7V80.22H38.64Zm1.82-9.72H37.11v.81h3.35Zm.35,2.17h-4v.84h4ZM41,85.94a16.81,16.81,0,0,1-4.11,1.34,6.29,6.29,0,0,1,.77.78,18.66,18.66,0,0,0,4.27-1.7Zm3.41.54A33.84,33.84,0,0,1,48.31,88l.91-.61a40.43,40.43,0,0,0-4.11-1.51Zm9.89-9.55c-.54-.4-1.59-1.05-2.34-1.48l-.6.71c.75.49,1.79,1.18,2.32,1.6Zm-.66,3.64c-.55-.37-1.61-1-2.37-1.38l-.6.73A23.71,23.71,0,0,1,53,81.41Zm-.55,2.24a41.55,41.55,0,0,1-2.13,4.48l.93.58c.66-1.29,1.44-3,2-4.48Zm2.77-5.89h7.49V76H54.82v3.82c0,2.3-.14,5.45-1.72,7.69A2.87,2.87,0,0,1,54,88c1.66-2.34,1.89-5.79,1.89-8.23Zm1.29,7.2a9.57,9.57,0,0,1-1.66,2.59,7.55,7.55,0,0,1,.84.53,14,14,0,0,0,1.76-2.87Zm.45-2.82h4.26v1.23H57.58Zm0-2h4.26v1.22H57.58Zm5.22,4v-4.8h-3c.18-.36.38-.77.57-1.18l-1.16-.23a14,14,0,0,1-.4,1.41H56.64v4.8h2.51V87c0,.16-.06.2-.24.21s-.77,0-1.44,0a3.85,3.85,0,0,1,.29.89,5.34,5.34,0,0,0,1.91-.14c.39-.15.47-.42.47-.93V83.33Zm-1.72,1a28.3,28.3,0,0,1,1.54,2.75l1-.42c-.35-.67-1-1.82-1.59-2.68Zm8.67-1.09a14.51,14.51,0,0,0-1-2.77l-.75.28c.19.41.36.87.53,1.33l-2.28.32a25.78,25.78,0,0,0,3.19-4.59l-.88-.52c-.34.67-.73,1.36-1.12,2L66,79.44a24,24,0,0,0,2.24-3.79l-1-.41a18.26,18.26,0,0,1-1.89,3.53c-.29.42-.54.71-.77.77.1.25.27.74.33.95a7.06,7.06,0,0,1,2-.32,16.72,16.72,0,0,1-1.17,1.55c-.42.52-.74.87-1,.94a7.28,7.28,0,0,1,.32,1c.27-.16.69-.26,3.77-.77.07.26.12.51.16.71Zm-4.5,1a15.88,15.88,0,0,1-.67,3.22,5.79,5.79,0,0,1,.8.31,18.72,18.72,0,0,0,.7-3.38Zm1.49.1a26.27,26.27,0,0,1,.35,3l.81-.19a26.37,26.37,0,0,0-.38-2.94Zm3.05,2A16,16,0,0,0,69,83.81l-.72.25A18.75,18.75,0,0,1,69,86.58Zm5.43.57c-.31,0-.35-.07-.35-.43v-5l1.06-.13c.21.4.38.77.51,1.07l.92-.45a22.34,22.34,0,0,0-2-3.36l-.85.38c.31.46.63,1,.94,1.54l-4.12.4A25,25,0,0,0,73.16,78h4.1v-1H73.67c.23-.46.47-1,.68-1.43l-1.12-.33c-.22.58-.49,1.19-.77,1.76H69.91v1H72a19.25,19.25,0,0,1-1.21,2c-.38.58-.68,1-1,1a9.21,9.21,0,0,1,.36,1,5.86,5.86,0,0,1,1.37-.28c-.08,2.89-.42,4.52-2.62,5.46a2.67,2.67,0,0,1,.65.81C72,87,72.45,85,72.56,81.74l1.32-.16v4.9c0,1,.23,1.35,1.21,1.35H76.3c.84,0,1.09-.49,1.19-2.37a2.52,2.52,0,0,1-.91-.41c0,1.59-.1,1.85-.39,1.85ZM85,76.72V76H81.31a4.63,4.63,0,0,0,.29-.53l-1-.26a6.84,6.84,0,0,1-2,2.38,4.67,4.67,0,0,1,.85.57,8.24,8.24,0,0,0,1.33-1.46Zm-1.8,1.12a4.85,4.85,0,0,0-.7-1.09L81.6,77a6.1,6.1,0,0,1,.68,1.12Zm7.57,4.65a16.86,16.86,0,0,0,.59-1.78l-.7-.18-.18,0H78.89v.61H90.17c-.1.39-.19.79-.29,1.1Zm-10.47.3v.54h9.56v-.54h-4.3v-.55h3.62v-.53H81.06v.53h3.48v.55Zm3,2.82v1H80.64v-1Zm-3.46,2h.87v-.4h2.59v.35h.89V85H79.77Zm5.33-1.28a6.42,6.42,0,0,1,1.25,1.26l.7-.47a5,5,0,0,0-1.26-1.21Zm-6.31-1.83h9.79v.71H84.47v.66h4.11v1.23c0,.14-.06.2-.24.2H87a4,4,0,0,1,.4.77,5.5,5.5,0,0,0,1.72-.14c.36-.14.47-.32.47-.8V85.88h1.66v-.66H89.58v-.71H91.4v-.62H78.79ZM87,76a4.18,4.18,0,0,0,.4-.63l-1-.25a5.34,5.34,0,0,1-2,2,5.46,5.46,0,0,1,.87.53h-.74v.67H79.39v.6h5.17v.55H80.39V80h9.46v-.54H85.58v-.55h5.25v-.6H85.58v-.67h-.21a7,7,0,0,0,1.08-.93h2.17l-.8.27a4.23,4.23,0,0,1,.76,1.09l.88-.29a4.72,4.72,0,0,0-.79-1.07h2.75V76Z"/><path class="b0881482-f674-4abc-aeeb-36807116bde2" d="M95,100H5a5,5,0,0,1-5-5V5A5,5,0,0,1,5,0H95a5,5,0,0,1,5,5V95A5,5,0,0,1,95,100ZM5,1A4,4,0,0,0,1,5V95a4,4,0,0,0,4,4H95a4,4,0,0,0,4-4V5a4,4,0,0,0-4-4Z"/><path class="e6c2cb31-f209-4a9a-a55a-8b8207ab4d17" d="M74.74,60.89,62.31,49.47l-6.12,14H73.74a1.48,1.48,0,0,0,1-2.58Z"/><path class="e6c2cb31-f209-4a9a-a55a-8b8207ab4d17" d="M25.26,60.89a1.48,1.48,0,0,0,1,2.58H43.81l-6.12-14Z"/><path class="e6c2cb31-f209-4a9a-a55a-8b8207ab4d17" d="M50,38.16,40,47.35l7,16.12H53l7-16.12Z"/><path class="e6c2cb31-f209-4a9a-a55a-8b8207ab4d17" d="M26.16,15.8h3.56v3.34a6.42,6.42,0,0,0-3.06,10.8l3.85,3.84-1.05,1a1.48,1.48,0,0,0,2.1,2.1L42.75,25.74a1.48,1.48,0,1,0-2.1-2.1l-1,1.05-3.85-3.85a6.36,6.36,0,0,0-3.06-1.7V15.8H67.31v3.34a6.36,6.36,0,0,0-3.06,1.7L60.4,24.69l-1-1.05a1.48,1.48,0,1,0-2.1,2.1L68.44,36.93a1.48,1.48,0,1,0,2.1-2.1l-1.05-1,3.85-3.84a6.42,6.42,0,0,0-3.06-10.8V15.8h3.56a1.49,1.49,0,0,0,0-3H26.16a1.49,1.49,0,0,0,0,3Z"/><path class="e6c2cb31-f209-4a9a-a55a-8b8207ab4d17" d="M35.54,37.15l3.2,7.32,9.07-8.33-5.87-5.39Z"/><path class="e6c2cb31-f209-4a9a-a55a-8b8207ab4d17" d="M61.26,44.47l3.2-7.32-6.4-6.4-5.87,5.39Z"/></svg>