<svg id="a6609b11-ff82-42da-804e-d5c33830ff49" data-name="圖層 1" xmlns="http://www.w3.org/2000/svg" viewBox="0 0 100 100"><defs><style>.b869a74a-bd13-4569-9ee3-2d45da4360e6{fill:#fff;}.f83a72f3-e2b6-451a-9bd0-ec1c0969cf6f{fill:#e5e5e5;}</style></defs><rect class="b869a74a-bd13-4569-9ee3-2d45da4360e6" x="0.5" y="0.5" width="99" height="99" rx="4.5"/><path class="f83a72f3-e2b6-451a-9bd0-ec1c0969cf6f" d="M17.53,79.44H12V76.79h5.55Zm1-3.64H11v4.63h7.61Zm-5.72,7.11v3.32H9.93V82.91ZM8.94,88h1v-.75h2.93v.63h1v-6H8.94Zm7.47-1.76V82.91h3.18v3.32Zm-1-4.33V88h1v-.75h3.18v.66h1v-6ZM24.2,80h2.36V75.23h-.88v3.85H24.2V75.51h-.95v5.32a18.76,18.76,0,0,1-1,6.81,7.58,7.58,0,0,1,.93.35,16,16,0,0,0,.94-5.12H25.6V88h1V82h-2.4c0-.39,0-.76,0-1.13Zm4.35,1.35V79.82H30.5a5.7,5.7,0,0,1-.45,1.52Zm0-3.83h2V79h-2ZM33.42,79H31.49v-1.5h1.93Zm0,2.33H31a7.69,7.69,0,0,0,.42-1.52h2ZM35.1,84.2H32.64V82.53h-1V84.2H28.93a6.23,6.23,0,0,0,1.69-2h3.83V76.64H30.68c.2-.36.42-.81.62-1.25l-1.17-.18a10.12,10.12,0,0,1-.57,1.43h-2V82.2h2A5.89,5.89,0,0,1,28,83.77a3.63,3.63,0,0,1,.55.43H27v.94h4.66V88h1V85.14H35.1ZM49,82.06H43.24V77.17h4.95v-1H37.25v1h4.92v4.89H36.52v1h5.65V88h1.07v-4.9H49ZM38.23,78.14a16.83,16.83,0,0,1,1.26,3.2l1-.33a13.9,13.9,0,0,0-1.33-3.15Zm7.42,3.25a29.35,29.35,0,0,0,1.72-3.29l-1.09-.31a20.7,20.7,0,0,1-1.52,3.3Zm15.54,4.9h-2.1V79.85h2.1Zm-8.95-6.44h2v6.44h-2Zm5.89,1.54h-3V79.85h3Zm-3,3.27h3v1.63h-3Zm3-.85h-3V82.24h3Zm4.78-6.68v-1H50.6v1H56c-.11.57-.25,1.22-.4,1.75H51.23V88h1v-.74h8.95V88h1.05V78.88H56.62c.18-.53.38-1.16.55-1.75Zm9-.45h2.32v2.24c0,1,.2,1.44,1.11,1.44h.91a2.14,2.14,0,0,0,.68-.07c0-.23,0-.63-.07-.89a3.08,3.08,0,0,1-.61.07h-.83c-.2,0-.22-.13-.22-.52V75.7H70.93v1.54a3.14,3.14,0,0,1-1.74,3,4.43,4.43,0,0,1,.68.75,4,4,0,0,0,2-3.72ZM67.84,77a13.43,13.43,0,0,0-1.08-1.81l-.81.41a13.56,13.56,0,0,1,1,1.87Zm1.89.63h-5.3v.85h5.3ZM65,82.06h4.13v-.83H65Zm0-2.65v.83h4.11v-.83Zm10,2.91a7.62,7.62,0,0,1-2,2.68,7.71,7.71,0,0,1-2-2.68Zm-6.82,4h-2.3V84h2.3Zm7.49-5-.18,0h-6v1h1.22l-.6.21a9.71,9.71,0,0,0,2.08,3.1A10,10,0,0,1,69.15,87v-4H65V87.8h.91v-.66h3.19a3.54,3.54,0,0,1,.48.87,11.13,11.13,0,0,0,3.47-1.71A9.9,9.9,0,0,0,76.54,88a4.24,4.24,0,0,1,.65-.94,9.76,9.76,0,0,1-3.31-1.4,8.92,8.92,0,0,0,2.5-4ZM82.2,77a10.5,10.5,0,0,0-1.08-1.79l-.78.4a12.55,12.55,0,0,1,1,1.86Zm2.23.63H78.67v.85h5.76Zm-.63,3.65H79.29v.83H83.8ZM82.91,84v2.31h-2.6V84Zm.93-.87H79.4V87.8h.91v-.66h3.53Zm-4.55-2.85h4.55v-.83H79.29ZM91.06,80H88.19V75.46h-1V80H84.4v1h2.74V88h1V81.05h2.87Z"/><path class="f83a72f3-e2b6-451a-9bd0-ec1c0969cf6f" d="M95,100H5a5,5,0,0,1-5-5V5A5,5,0,0,1,5,0H95a5,5,0,0,1,5,5V95A5,5,0,0,1,95,100ZM5,1A4,4,0,0,0,1,5V95a4,4,0,0,0,4,4H95a4,4,0,0,0,4-4V5a4,4,0,0,0-4-4Z"/><path class="f83a72f3-e2b6-451a-9bd0-ec1c0969cf6f" d="M71.75,26.3a.63.63,0,0,0,.88,0c.57-.58,1.3-1.29,1.77-1.73a.62.62,0,0,0,0-.88c-.61-.62-1.74-1.78-2.54-2.64A.61.61,0,0,0,71,21l-1.81,1.81a.6.6,0,0,0,0,.86Z"/><path class="f83a72f3-e2b6-451a-9bd0-ec1c0969cf6f" d="M74.32,26.71c-1.1,1.05-3.81,3.8-5.16,5.13a1.08,1.08,0,0,0-.35.86c0,7.09,0,14.12,0,21.2H40.37V31.54s8.84,0,17.53,0a1.12,1.12,0,0,0,.73-.25c1.58-1.54,3.13-3.1,4.69-4.67H53A5.09,5.09,0,0,1,54.64,22c2.68-2.49,6.61-3.95,8.26-7.36A1.33,1.33,0,0,0,62,13a1.14,1.14,0,0,0-1.62.56,7.84,7.84,0,0,1-2.75,2.88c-4.51,2.68-7.57,4.4-7.51,10.23H36a1.65,1.65,0,0,0-1.65,1.65v28.9A1.65,1.65,0,0,0,36,58.84H73.14a1.65,1.65,0,0,0,1.65-1.65V26.92A.28.28,0,0,0,74.32,26.71Z"/><rect class="f83a72f3-e2b6-451a-9bd0-ec1c0969cf6f" x="25.43" y="26.58" width="7.08" height="15.2" rx="1.59"/><rect class="f83a72f3-e2b6-451a-9bd0-ec1c0969cf6f" x="25.43" y="43.64" width="7.08" height="15.2" rx="1.59"/><path class="f83a72f3-e2b6-451a-9bd0-ec1c0969cf6f" d="M51.1,40.83a3.19,3.19,0,0,0-.81,1.4c-.22.79-.52,1.88-.74,2.71a.74.74,0,0,0,.91.9c.92-.25,1.81-.49,2.69-.75a3.5,3.5,0,0,0,1.46-.86c4.81-4.8,13.86-13.75,16.12-16a.72.72,0,0,0,0-1l-2.52-2.51a.71.71,0,0,0-1,0C65,27,56,36,51.1,40.83Z"/><rect class="f83a72f3-e2b6-451a-9bd0-ec1c0969cf6f" x="25.21" y="61.04" width="49.59" height="2.43" rx="1.22"/></svg>