<svg id="ac3672f7-7b50-4719-8e71-7cc7953e0c2c" data-name="圖層 1" xmlns="http://www.w3.org/2000/svg" viewBox="0 0 100 100"><defs><style>.a72a152a-af34-4464-84d5-de2b3019c387{fill:#fff;}.aa031e8a-03f1-40df-bdeb-56d35f688c81{fill:#00263d;}.e10639a5-dbd2-41b3-b051-5facb8116355{fill:#e5e5e5;}</style></defs><rect class="a72a152a-af34-4464-84d5-de2b3019c387" x="0.5" y="0.5" width="99" height="99" rx="4.5"/><path class="aa031e8a-03f1-40df-bdeb-56d35f688c81" d="M12.05,79.05a12.88,12.88,0,0,1-.76,4.63c-.45-.4-.91-.81-1.33-1.16.24-1,.49-2.17.73-3.39Zm1.49,7A17.74,17.74,0,0,0,12,84.34,13.73,13.73,0,0,0,12.93,79l.7,0V78l-.7,0v-.95h-.88v1l-1.19.06c.16-1,.32-2,.4-2.93l-.91,0c-.08.92-.22,2-.38,3l-1.27.06.11,1,1,0c-.26,1.37-.55,2.69-.83,3.64.6.52,1.27,1.12,1.9,1.73a8.49,8.49,0,0,1-2.25,2.68,3,3,0,0,1,.69.63,9.06,9.06,0,0,0,2.24-2.63,20,20,0,0,1,1.37,1.58Zm2.08-1.67A6.09,6.09,0,0,1,13.4,87a3.5,3.5,0,0,1,.7.74,7.53,7.53,0,0,0,2.29-3.09Zm.16-4.73H19.1V80.9H15.78Zm3.32-2v1.23H15.78V77.58Zm2.24,6.33V83H18V81.76h2.1V77.58h1.24v-.91H20.1V75.14h-1v1.53H15.78V75.14h-.95v1.53H13.59v.91h1.24v4.18H17V83H13.61v.9H17v4h1v-4Zm-2.71.78a27.41,27.41,0,0,1,2,2.94l.81-.39a25.18,25.18,0,0,0-2.1-2.89ZM34.22,78H33.09V77h1.13Zm0,1.74H33.09v-1h1.13Zm-4.66-1h1.08v1H29.56Zm0-1.69h1.08v1H29.56Zm2.83,1.69v1H31.34v-1ZM31.34,78V77h1.05v1Zm3.72-1.74H33.2V75.17h-.85v1.06h-1V75.17h-.86v1.06H28.75v4.22h6.31Zm.35,5h-7V82h7Zm-5.36,2.17h3.71v1.17H30.05Zm4.68,1.87V82.63h-5.6v2.59Zm-7.33-4H23.74v-.92H27.4Zm-3-4.75h2.39v.9H25.23v2.17h-.86Zm1.48,3.07V78h.91v1.51Zm1.78-3.86H23.51v3.86h-.57v2h.68v2.3a6.46,6.46,0,0,1-.81,3.61,3.08,3.08,0,0,1,.73.56,7.54,7.54,0,0,0,1-4.17V81.93H26.7V84.3c-.85.45-1.66.87-2.26,1.12l.39.74c.59-.34,1.22-.73,1.87-1.13v1.83c0,.14,0,.2-.19.2s-.63,0-1.18,0a5,5,0,0,1,.3.8,4.54,4.54,0,0,0,1.56-.14c.31-.15.4-.38.4-.83V81.51h.64v-2h-.6Zm-1,7.95a10,10,0,0,0-1.52-1.14l-.48.48a11.61,11.61,0,0,1,1.48,1.23Zm6.83,3.25.7-1.32-.95-.28c-.14.45-.39,1.11-.6,1.6H31.23c-.14-.45-.4-1.08-.61-1.56l-.81.24a9.92,9.92,0,0,1,.49,1.32h-2v.81h7.24v-.81Zm7.19-11.29A14.53,14.53,0,0,1,36.71,81a8.58,8.58,0,0,1,.93.84,18.69,18.69,0,0,0,4.1-6ZM44.68,83c.56.75,1.19,1.66,1.74,2.52L40,85.91a36.81,36.81,0,0,0,4.1-6l-1.16-.49a31.63,31.63,0,0,1-3.53,5.52c-.53.66-.94,1.12-1.32,1.2a5.71,5.71,0,0,1,.41,1.11C39,87,39.77,87,47,86.5c.29.5.56,1,.75,1.34l1-.57a42.21,42.21,0,0,0-3.14-4.71Zm-2.1-7.51v1h2.6a11.63,11.63,0,0,0,3.69,5.3,5.41,5.41,0,0,1,.81-1A10.17,10.17,0,0,1,46,75.51Zm9.83,2.74h3.12v1H52.41Zm3.12-1.75v1H52.41v-1Zm.18,5.94c.1.16.2.36.3.56l-1.42.11a17.14,17.14,0,0,0,2.12-1.93l-.62-.41a6.86,6.86,0,0,1-.62.73l-1,0a7.57,7.57,0,0,0,1.09-1.27L55.05,80h1.46V75.74h-5.1v12.2h1V80h2.41a7,7,0,0,1-1,1.28,1,1,0,0,1-.46.25,7.45,7.45,0,0,1,.24.71,5.59,5.59,0,0,1,1.3-.16,7.32,7.32,0,0,1-.84.72,1.65,1.65,0,0,1-.76.4,2.61,2.61,0,0,1,.21.68,16.26,16.26,0,0,1,2.76-.35c.06.17.13.32.17.44h-.53v1.23a1.32,1.32,0,0,1,0,.28H54.58v-1.3h-.72v2h1.87a2.37,2.37,0,0,1-1.56,1.07,2.72,2.72,0,0,1,.51.62,2.46,2.46,0,0,0,2-2.62V84h-.14l.51-.2a12,12,0,0,0-.76-1.53Zm4.72,4.14V84.2h-.74v1.29H58.34V84h-.78v3.75h.78V86.15h1.35v.43Zm-1.68-7.34v-1H62v1ZM62,76.5v1H58.75v-1Zm1-.76H57.76V80h.86a6.69,6.69,0,0,1-1,1.29.76.76,0,0,1-.47.25,5.3,5.3,0,0,1,.26.72,4,4,0,0,1,1.31-.18c-.39.35-.7.63-.85.74a1.79,1.79,0,0,1-.74.38,6,6,0,0,1,.21.7,12.44,12.44,0,0,1,2.73-.37c.09.18.16.34.22.48l.56-.25A12.88,12.88,0,0,0,60,82.25l-.53.19c.09.16.19.36.29.56l-1.4.11a13.71,13.71,0,0,0,2.11-2l-.6-.39c-.19.25-.39.49-.61.73l-1,0a9.26,9.26,0,0,0,1.09-1.27L58.83,80H62v6.61c0,.18-.06.25-.24.25a12.81,12.81,0,0,1-1.38,0,5,5,0,0,1,.32,1,4.61,4.61,0,0,0,1.82-.21c.38-.17.49-.49.49-1.07Zm14.1.26H70.24v1h6.84Zm-9.17-.86a13.76,13.76,0,0,1-3.21,3c.18.2.46.6.62.83a17.37,17.37,0,0,0,3.58-3.48Zm.57,3a15.24,15.24,0,0,1-3.92,4.22,11.23,11.23,0,0,1,.73.87,16.06,16.06,0,0,0,1.58-1.46V88h1V80.6a18.56,18.56,0,0,0,1.54-2.11Zm9,1.7H69.64v1h4.68v5.77c0,.24-.09.29-.35.31s-1.19,0-2.19,0a3.54,3.54,0,0,1,.34,1,10.81,10.81,0,0,0,2.63-.15c.46-.17.62-.49.62-1.14V80.81h2.11ZM90.4,75.53A16.48,16.48,0,0,1,89,78.18l.84.36a20.3,20.3,0,0,0,1.57-2.63Zm-3.86,2.64a9.42,9.42,0,0,0-1.43-2.57l-.82.41a10.24,10.24,0,0,1,1.35,2.62Zm-2.7,7.37L82,85.89V82h1.78v-.91H82V79.57h1.3v-.9H80.09a12.73,12.73,0,0,0,1.42-1.92c.79.7,1.67,1.53,2.16,2.06l.57-.8c-.5-.5-1.45-1.36-2.28-2,.1-.18.18-.35.27-.52l-.93-.31a9.64,9.64,0,0,1-2.7,3.45,5,5,0,0,1,.53,1l.61-.56v.52H81v1.52H78.9V82H81v4.08c-.9.16-1.7.32-2.31.42l.25.93,4.91-1.09ZM79,82.91a19,19,0,0,1,.56,2.59l.79-.21c-.12-.68-.38-1.73-.61-2.56Zm4,2.42a26.34,26.34,0,0,0,.85-2.52l-.82-.25a18.71,18.71,0,0,1-.69,2.55Zm7.9-6.21H88.26v-4h-1v4H84.62V83a9.42,9.42,0,0,1-.78,4.41,4.39,4.39,0,0,1,.8.62,10.65,10.65,0,0,0,1-5V80h4.35v3.25c-1.61.38-3.23.74-4.34,1l.35.89c1.14-.26,2.59-.63,4-1v2.45c0,.19-.07.26-.28.26s-.92,0-1.72,0a3.74,3.74,0,0,1,.32,1,6.73,6.73,0,0,0,2.14-.17c.41-.17.54-.47.54-1Zm-5.09,2.55a13.68,13.68,0,0,1,3.25,1.12l.42-.76a13.76,13.76,0,0,0-3.26-1Z"/><path class="e10639a5-dbd2-41b3-b051-5facb8116355" d="M95,100H5a5,5,0,0,1-5-5V5A5,5,0,0,1,5,0H95a5,5,0,0,1,5,5V95A5,5,0,0,1,95,100ZM5,1A4,4,0,0,0,1,5V95a4,4,0,0,0,4,4H95a4,4,0,0,0,4-4V5a4,4,0,0,0-4-4Z"/><path class="aa031e8a-03f1-40df-bdeb-56d35f688c81" d="M48.52,34.71a1.48,1.48,0,1,0,3,0V30.06h-3Z"/><path class="aa031e8a-03f1-40df-bdeb-56d35f688c81" d="M44.07,42.13a7.41,7.41,0,0,1,5.93-3,4.46,4.46,0,0,1-4.45-4.45V30.06H44.07a7.43,7.43,0,0,0-7.42,7.42v1.83A7.42,7.42,0,0,1,44.07,42.13Z"/><path class="aa031e8a-03f1-40df-bdeb-56d35f688c81" d="M55.93,42.13a7.44,7.44,0,0,1,7.42-2.82V37.48a7.42,7.42,0,0,0-7.42-7.42H54.45v4.65A4.46,4.46,0,0,1,50,39.16,7.41,7.41,0,0,1,55.93,42.13Z"/><path class="aa031e8a-03f1-40df-bdeb-56d35f688c81" d="M50,30.06a7.42,7.42,0,1,0-7.42-7.42A7.43,7.43,0,0,0,50,30.06Z"/><path class="aa031e8a-03f1-40df-bdeb-56d35f688c81" d="M73.84,54.09H72.25V49.55a1.47,1.47,0,0,0-1-1.41L66.32,46.5a4.45,4.45,0,1,0-.94,2.81l3.91,1.3v3.48H63.35v-.24A7.43,7.43,0,0,1,55.93,51a7.21,7.21,0,0,1-1.48,1.49v1.58h-3V50.77a4.45,4.45,0,1,0-3,0v3.32h-3V52.51A7.21,7.21,0,0,1,44.07,51a7.43,7.43,0,0,1-7.42,2.83v.24H30.71V50.61l3.91-1.3a4.45,4.45,0,1,0-.94-2.81l-4.92,1.64a1.47,1.47,0,0,0-1,1.41v4.54H26.16a1.49,1.49,0,0,0-1.48,1.49v8.8a1.48,1.48,0,0,0,1.48,1.48H73.84a1.48,1.48,0,0,0,1.48-1.48v-8.8A1.49,1.49,0,0,0,73.84,54.09Z"/></svg>