<svg id="af4cb76c-e533-4053-bb95-eb6f67238b0f" data-name="圖層 1" xmlns="http://www.w3.org/2000/svg" viewBox="0 0 100 100"><defs><style>.bbea61db-bd2c-4edb-9103-5f3d325d10f4{fill:#fff;}.b935e080-43de-4c05-ace2-1349ca9c1634{fill:#e5e5e5;}</style></defs><rect class="bbea61db-bd2c-4edb-9103-5f3d325d10f4" x="0.5" y="0.5" width="99" height="99" rx="4.5"/><path class="b935e080-43de-4c05-ace2-1349ca9c1634" d="M9.34,84.16a17.43,17.43,0,0,1-.65,3.22,4.17,4.17,0,0,1,.77.28,19.16,19.16,0,0,0,.68-3.38Zm1.45.08a28.59,28.59,0,0,1,.33,3l.79-.2a22.15,22.15,0,0,0-.4-2.94ZM12.3,84a19.93,19.93,0,0,1,.78,2.71l.73-.26A19.21,19.21,0,0,0,13,83.74Zm-.13-3.21c.16.41.34.85.49,1.3l-2.41.34a28.16,28.16,0,0,0,3.07-4.65l-.81-.49c-.3.66-.67,1.33-1,1.93L10,79.34a21.74,21.74,0,0,0,2.11-3.75l-.88-.38a19.2,19.2,0,0,1-1.79,3.53c-.28.42-.52.71-.75.77.1.24.24.7.3.9a6.42,6.42,0,0,1,1.93-.34,17.25,17.25,0,0,1-1.15,1.64c-.4.53-.71.88-1,.94a4.75,4.75,0,0,1,.29.91c.27-.14.69-.24,3.81-.73.06.24.13.47.17.67l.78-.31a22.37,22.37,0,0,0-.94-2.67Zm5,3.74c-.3,0-.34-.11-.34-.48V82.66h2.89v-.83H17.67l.51-.22a12,12,0,0,0-.62-1.26h2.35v-.83H18.72c.23-.6.48-1.4.69-2.08l-.76-.23A14.43,14.43,0,0,1,18,79.52H15.34v.83h2.14l-.65.25a9.48,9.48,0,0,1,.55,1.23h-1.9v.83H16V84c0,.92.21,1.26,1.14,1.26h1.79a4.3,4.3,0,0,0,.9-.07c0-.21-.06-.53-.09-.77a4.47,4.47,0,0,1-.82.07Zm-1.39-7.1a7.64,7.64,0,0,1,.73,2l.67-.24a6.58,6.58,0,0,0-.75-2Zm5.35-1.54H14V88H15V76.79h5.24v10c0,.19-.06.25-.24.26s-.73,0-1.32,0a3.56,3.56,0,0,1,.27.92,4.53,4.53,0,0,0,1.76-.18c.37-.17.48-.42.48-1Zm5.31,1.48a9.26,9.26,0,0,0-1-2.07l-.87.27a11.9,11.9,0,0,1,.93,2.13Zm.22,7.33c.36-1.47.74-3.6,1-5.24l-1-.18a49.41,49.41,0,0,1-.91,5.63c-1.15.28-2.21.5-3,.68l.25,1c1.46-.36,3.4-.85,5.25-1.33l-.1-1Zm-3.18-5.1a35.39,35.39,0,0,1,.67,5l.89-.17a43,43,0,0,0-.72-5Zm-.54-.8h5.4v-1H23Zm10.87,7.56h-4.2V82.83h4.2Zm1.64-7.25v-1H32V75.2H30.9v6.65H28.64V88h1v-.66h4.2v.6h1V81.85H32V79.09Zm8.78-2.41h2.32v2.24c0,1,.2,1.44,1.11,1.44h.91a2.18,2.18,0,0,0,.69-.07c0-.23-.06-.63-.07-.89a3.18,3.18,0,0,1-.62.07h-.83c-.19,0-.22-.13-.22-.52V75.7H43.29v1.54a3.13,3.13,0,0,1-1.73,3,4.84,4.84,0,0,1,.67.75,4,4,0,0,0,2-3.72ZM40.2,77a11.62,11.62,0,0,0-1.08-1.81l-.81.41a13.56,13.56,0,0,1,1,1.87Zm1.89.63H36.8v.85h5.29ZM37.4,82.06h4.13v-.83H37.4Zm0-2.65v.83h4.12v-.83Zm10,2.91a7.59,7.59,0,0,1-2,2.68,7.74,7.74,0,0,1-2-2.68Zm-6.82,4H38.3V84h2.29Zm7.49-5-.18,0h-6v1h1.21l-.6.21a9.74,9.74,0,0,0,2.09,3.1A10.23,10.23,0,0,1,41.52,87v-4H37.39V87.8h.91v-.66h3.19A3.51,3.51,0,0,1,42,88a11.29,11.29,0,0,0,3.48-1.71A9.74,9.74,0,0,0,48.91,88a4.21,4.21,0,0,1,.64-.94,9.71,9.71,0,0,1-3.3-1.4,9,9,0,0,0,2.49-4ZM54.56,77a10.4,10.4,0,0,0-1.07-1.79l-.79.4a11.69,11.69,0,0,1,1,1.86Zm2.23.63H51v.85h5.75Zm-.63,3.65H51.65v.83h4.51ZM55.28,84v2.31H52.67V84Zm.92-.87H51.76V87.8h.91v-.66H56.2Zm-4.55-2.85H56.2v-.83H51.65ZM63.43,80H60.56V75.46H59.51V80H56.76v1h2.75V88h1.05V81.05h2.87Zm13.59-4H70.19v1H77Zm-9.17-.85a14,14,0,0,1-3.21,3,7.05,7.05,0,0,1,.62.82,17.07,17.07,0,0,0,3.58-3.47Zm.57,3a15,15,0,0,1-3.92,4.21,9.36,9.36,0,0,1,.73.87,15.9,15.9,0,0,0,1.58-1.45V88h1V80.66a17.5,17.5,0,0,0,1.54-2.12Zm9,1.69H69.59v1h4.67v5.77c0,.23-.08.29-.35.3s-1.19,0-2.18,0a3.72,3.72,0,0,1,.33,1,10.24,10.24,0,0,0,2.64-.16c.46-.16.61-.49.61-1.13V80.87h2.12Zm12.92-4.28a19.32,19.32,0,0,1-1.44,2.65l.84.36A21.76,21.76,0,0,0,91.31,76Zm-3.87,2.63a9.32,9.32,0,0,0-1.42-2.56l-.83.41a10.24,10.24,0,0,1,1.36,2.61Zm-2.7,7.38L81.91,86V82.06h1.77v-.91H81.91V79.62h1.3v-.89H80a12.61,12.61,0,0,0,1.43-1.92c.78.7,1.66,1.52,2.15,2.06l.58-.8c-.51-.51-1.46-1.36-2.28-2l.26-.51-.92-.31a9.72,9.72,0,0,1-2.7,3.44,5.26,5.26,0,0,1,.53,1l.6-.56v.52H81v1.53H78.84v.91H81v4.07c-.89.17-1.69.32-2.31.42l.25.94,4.92-1.09ZM79,83a22.53,22.53,0,0,1,.56,2.59l.78-.21c-.11-.69-.38-1.74-.6-2.56Zm4,2.42c.28-.64.59-1.67.86-2.52L83,82.62a19.09,19.09,0,0,1-.68,2.55Zm7.9-6.22H88.21v-4h-1v4H84.57V83a9.3,9.3,0,0,1-.79,4.41,3.43,3.43,0,0,1,.8.62,10.56,10.56,0,0,0,1-5V80.1h4.36v3.25c-1.61.37-3.24.74-4.34,1l.35.9c1.13-.27,2.59-.63,4-1v2.45c0,.2-.07.27-.28.27s-.93,0-1.73,0a4.19,4.19,0,0,1,.33,1,6.73,6.73,0,0,0,2.14-.17c.4-.17.53-.48.53-1ZM85.8,81.72a14.63,14.63,0,0,1,3.25,1.12l.42-.75a14.31,14.31,0,0,0-3.27-1Z"/><path class="b935e080-43de-4c05-ace2-1349ca9c1634" d="M95,100H5a5,5,0,0,1-5-5V5A5,5,0,0,1,5,0H95a5,5,0,0,1,5,5V95A5,5,0,0,1,95,100ZM5,1A4,4,0,0,0,1,5V95a4,4,0,0,0,4,4H95a4,4,0,0,0,4-4V5a4,4,0,0,0-4-4Z"/><path class="b935e080-43de-4c05-ace2-1349ca9c1634" d="M75.6,23.68v30c-.53,1.55-1.66,2-3.22,2-5.31,0-10.63,0-15.94,0h-.58v5.61h.59c2,0,4,0,6,0a2.29,2.29,0,0,1,2.2,3.11,2.37,2.37,0,0,1-2.39,1.47H37.71a2.43,2.43,0,0,1-1.9-.71,2.29,2.29,0,0,1,1.69-3.88c2,0,4.06,0,6.1,0h.55V55.66H27.33c-2,0-2.93-1-2.93-2.91V24.56a5.15,5.15,0,0,1,0-.55,2.45,2.45,0,0,1,2-2.26,5.26,5.26,0,0,1,.89-.06q22.7,0,45.39,0a4.67,4.67,0,0,1,1,.08,2.42,2.42,0,0,1,1.74,1.5C75.47,23.41,75.54,23.54,75.6,23.68ZM28.15,25.43V51.91H71.86V25.43Z"/><path class="b935e080-43de-4c05-ace2-1349ca9c1634" d="M47.41,48.09a1.5,1.5,0,0,1-1.43-2c.63-2,1.28-4,1.92-6q1.56-4.81,3.11-9.64c.31-.95.93-1.43,1.73-1.33a1.5,1.5,0,0,1,1.28,2c-.59,1.89-1.21,3.77-1.82,5.65L49,46.75C48.69,47.67,48.2,48.08,47.41,48.09Z"/><path class="b935e080-43de-4c05-ace2-1349ca9c1634" d="M59.64,38.63C58,37.89,56.51,37.19,55,36.46a2.41,2.41,0,0,1-.87-.71,1.48,1.48,0,0,1,.15-1.81,1.57,1.57,0,0,1,1.83-.34l4.76,2.21,2.8,1.3a1.63,1.63,0,0,1,0,3.06l-7.42,3.45A1.56,1.56,0,0,1,54,43,1.58,1.58,0,0,1,55,40.83c1.38-.66,2.77-1.3,4.16-1.94Z"/><path class="b935e080-43de-4c05-ace2-1349ca9c1634" d="M40.35,38.64l4.38,2a5.29,5.29,0,0,1,.74.4,1.52,1.52,0,0,1-1.29,2.7,3.61,3.61,0,0,1-.42-.16l-7.42-3.45a1.57,1.57,0,0,1-1.05-1.82,1.44,1.44,0,0,1,.86-1.15c2.59-1.21,5.19-2.42,7.79-3.61a1.5,1.5,0,0,1,2,.73,1.53,1.53,0,0,1-.78,2.06c-1.45.7-2.92,1.36-4.38,2Z"/></svg>