<svg width="15" height="15" viewBox="0 0 15 15" fill="none" xmlns="http://www.w3.org/2000/svg">
<path fill-rule="evenodd" clip-rule="evenodd" d="M7.25 0C4.3475 0 2 2.3475 2 5.25C2 9.1875 7.25 15 7.25 15C7.25 15 12.5 9.1875 12.5 5.25C12.5 2.3475 10.1525 0 7.25 0ZM5.375 5.25C5.375 4.21447 6.21447 3.375 7.25 3.375C7.91987 3.375 8.53886 3.73237 8.8738 4.3125C9.20873 4.89263 9.20873 5.60737 8.8738 6.1875C8.53886 6.76763 7.91987 7.125 7.25 7.125C6.21447 7.125 5.375 6.28553 5.375 5.25Z" fill="white"/>
</svg>
