<svg width="30" height="30" viewBox="0 0 30 30" fill="none" xmlns="http://www.w3.org/2000/svg">
<path d="M26.4375 8.0625C25.7594 6.85625 25.0234 6.63438 23.525 6.55C22.0281 6.44844 18.2641 6.40625 15.0031 6.40625C11.7359 6.40625 7.97031 6.44844 6.475 6.54844C4.97969 6.63438 4.24219 6.85469 3.55781 8.0625C2.85937 9.26719 2.5 11.3422 2.5 14.9953C2.5 14.9984 2.5 15 2.5 15C2.5 15.0031 2.5 15.0047 2.5 15.0047V15.0078C2.5 18.6453 2.85937 20.7359 3.55781 21.9281C4.24219 23.1344 4.97812 23.3531 6.47344 23.4547C7.97031 23.5422 11.7359 23.5938 15.0031 23.5938C18.2641 23.5938 22.0281 23.5422 23.5266 23.4562C25.025 23.3547 25.7609 23.1359 26.4391 21.9297C27.1438 20.7375 27.5 18.6469 27.5 15.0094C27.5 15.0094 27.5 15.0047 27.5 15.0016C27.5 15.0016 27.5 14.9984 27.5 14.9969C27.5 11.3422 27.1437 9.26719 26.4375 8.0625ZM11.875 19.6875V10.3125L19.6875 15L11.875 19.6875Z" fill="white"/>
</svg>
