<?xml version="1.0" encoding="utf-8"?>
<!-- Generator: Adobe Illustrator 24.1.1, SVG Export Plug-In . SVG Version: 6.00 Build 0)  -->
<svg version="1.1" id="圖層_1" xmlns="http://www.w3.org/2000/svg" xmlns:xlink="http://www.w3.org/1999/xlink" x="0px" y="0px"
	 viewBox="0 0 15 15" style="enable-background:new 0 0 15 15;" xml:space="preserve">
<style type="text/css">
	.st0{fill-rule:evenodd;clip-rule:evenodd;fill:#00263D;}
</style>
<path class="st0" d="M2,0C1.1,0,0.4,0.7,0.4,1.6v11.8C0.4,14.3,1.1,15,2,15H13c0.9,0,1.6-0.7,1.6-1.6V1.6C14.6,0.7,13.9,0,13,0H2z
	 M3.6,11.8h7.9c0.4,0,0.8-0.4,0.8-0.8s-0.4-0.8-0.8-0.8H3.6c-0.4,0-0.8,0.4-0.8,0.8S3.1,11.8,3.6,11.8z M11.4,8.7H3.6
	c-0.4,0-0.8-0.4-0.8-0.8c0-0.4,0.4-0.8,0.8-0.8h7.9c0.4,0,0.8,0.4,0.8,0.8C12.2,8.3,11.9,8.7,11.4,8.7z M3.6,5.5h7.9
	c0.4,0,0.8-0.4,0.8-0.8c0-0.4-0.4-0.8-0.8-0.8H3.6c-0.4,0-0.8,0.4-0.8,0.8C2.8,5.2,3.1,5.5,3.6,5.5z"/>
</svg>
