<svg width="15" height="15" viewBox="0 0 15 15" fill="none" xmlns="http://www.w3.org/2000/svg">
<path fill-rule="evenodd" clip-rule="evenodd" d="M1.5 2H13.5C14.325 2 15 2.675 15 3.5V12.5C15 13.325 14.325 14 13.5 14H1.5C0.675 14 0 13.325 0 12.5V3.5C0 2.675 0.675 2 1.5 2ZM8.295 8.255L13.2 5.1875C13.3875 5.0675 13.5 4.865 13.5 4.6475C13.5 4.145 12.9525 3.845 12.525 4.1075L7.5 7.25L2.475 4.1075C2.0475 3.845 1.5 4.145 1.5 4.6475C1.5 4.865 1.6125 5.0675 1.8 5.1875L6.705 8.255C7.1925 8.5625 7.8075 8.5625 8.295 8.255Z" fill="white"/>
</svg>
