<?xml version="1.0" encoding="utf-8"?>
<!-- Generator: Adobe Illustrator 24.1.1, SVG Export Plug-In . SVG Version: 6.00 Build 0)  -->
<svg version="1.1" id="圖層_1" xmlns="http://www.w3.org/2000/svg" xmlns:xlink="http://www.w3.org/1999/xlink" x="0px" y="0px"
	 viewBox="0 0 15 15" style="enable-background:new 0 0 15 15;" xml:space="preserve">
<style type="text/css">
	.st0{fill:#FFFFFF;}
</style>
<path class="st0" d="M13.5,10.2L11.4,10c-0.5-0.1-1,0.1-1.4,0.5L8.5,12C6.1,10.8,4.2,8.9,3,6.5L4.5,5C4.9,4.6,5.1,4.1,5,3.6L4.8,1.5
	C4.7,0.6,4,0,3.1,0H1.7C0.7,0-0.1,0.8,0,1.7C0.4,8.9,6.1,14.6,13.3,15c0.9,0.1,1.7-0.7,1.7-1.7v-1.4C15,11,14.4,10.3,13.5,10.2z"/>
</svg>
