<?xml version="1.0" encoding="utf-8"?>
<!-- Generator: Adobe Illustrator 24.1.1, SVG Export Plug-In . SVG Version: 6.00 Build 0)  -->
<svg version="1.1" id="圖層_1" xmlns="http://www.w3.org/2000/svg" xmlns:xlink="http://www.w3.org/1999/xlink" x="0px" y="0px"
	 viewBox="0 0 15 15" style="enable-background:new 0 0 15 15;" xml:space="preserve">
<style type="text/css">
	.st0{fill:#FFFFFF;}
</style>
<path class="st0" d="M2.8,6.1c3.1,0,6.3,0,9.4,0c0-0.9,0-1.9,0-2.8c0.3,0,0.6,0,0.8,0c0.4,0,0.7,0.1,1.1,0.3C14.7,4,15,4.6,15,5.3
	c0,1.5,0,3,0,4.5c0,1-0.9,2-1.9,2c-0.3,0-0.6,0-0.9,0c0-0.9,0-1.9,0-2.8c-3.1,0-6.2,0-9.4,0c0,0.9,0,1.9,0,2.8
	c-0.6,0-1.2,0.1-1.7-0.2C0.4,11.1,0,10.5,0,9.7c0-1.5,0-3,0-4.5c0-1,0.9-1.9,1.9-1.9c0.3,0,0.6,0,0.9,0C2.8,4.2,2.8,5.1,2.8,6.1z"/>
<path class="st0" d="M3.8,5.1c0-1.6,0-3.1,0-4.7c2.5,0,5,0,7.5,0c0,1.6,0,3.1,0,4.7C8.7,5.1,6.3,5.1,3.8,5.1z"/>
<path class="st0" d="M3.8,14.5c0-1.6,0-3.1,0-4.7c2.5,0,5,0,7.5,0c0,1.6,0,3.1,0,4.7C8.7,14.5,6.3,14.5,3.8,14.5z M10.3,10.8
	c-1.9,0-3.7,0-5.6,0c0,0.3,0,0.6,0,0.9c1.9,0,3.7,0,5.6,0C10.3,11.4,10.3,11.1,10.3,10.8z M10.3,12.7c-1.9,0-3.7,0-5.6,0
	c0,0.3,0,0.6,0,0.9c1.9,0,3.7,0,5.6,0C10.3,13.3,10.3,13,10.3,12.7z"/>
</svg>
