<svg width="98" height="250" viewBox="0 0 98 250" fill="none" xmlns="http://www.w3.org/2000/svg">
<path opacity="0.5" d="M16.6725 8.33331L17.8016 6.68251L16.6725 6.33331V8.33331ZM95.8671 62.5L97.0293 64.1276L96.9962 60.8492L95.8671 62.5ZM8.33627 125L7.17407 123.372V126.628L8.33627 125ZM95.8671 187.5L96.9962 189.151L97.0293 185.872L95.8671 187.5ZM16.6725 241.667V243.667L17.8016 243.317L16.6725 241.667ZM10.3363 250V0H6.33628V250H10.3363ZM0 10.3333H16.6725V6.33331H0V10.3333ZM15.5434 9.98411L94.738 64.1508L96.9962 60.8492L17.8016 6.68251L15.5434 9.98411ZM94.7049 60.8723L7.17407 123.372L9.49848 126.628L97.0293 64.1276L94.7049 60.8723ZM7.17407 126.628L94.7049 189.128L97.0293 185.872L9.49848 123.372L7.17407 126.628ZM94.738 185.849L15.5434 240.016L17.8016 243.317L96.9962 189.151L94.738 185.849ZM16.6725 239.667H0V243.667H16.6725V239.667Z" fill="url(#paint0_linear)"/>
<defs>
<linearGradient id="paint0_linear" x1="47.9336" y1="0" x2="47.9336" y2="250" gradientUnits="userSpaceOnUse">
<stop stop-color="#4FA8FF"/>
<stop offset="1" stop-color="#4FA8FF" stop-opacity="0"/>
</linearGradient>
</defs>
</svg>
