<?xml version="1.0" encoding="utf-8"?>
<!-- Generator: Adobe Illustrator 24.1.1, SVG Export Plug-In . SVG Version: 6.00 Build 0)  -->
<svg version="1.1" id="圖層_1" xmlns="http://www.w3.org/2000/svg" xmlns:xlink="http://www.w3.org/1999/xlink" x="0px" y="0px"
	 viewBox="0 0 98 250" style="enable-background:new 0 0 98 250;" xml:space="preserve">
<style type="text/css">
	.st0{opacity:0.5;enable-background:new    ;}
	.st1{fill:url(#SVGID_1_);}
</style>
<g class="st0">
	
		<linearGradient id="SVGID_1_" gradientUnits="userSpaceOnUse" x1="48.5581" y1="249.8896" x2="48.5581" y2="-0.1104" gradientTransform="matrix(1 0 0 -1 0 249.8898)">
		<stop  offset="0" style="stop-color:#4FA8FF"/>
		<stop  offset="1" style="stop-color:#4FA8FF;stop-opacity:0"/>
	</linearGradient>
	<polygon class="st1" points="10.3,250 6.3,250 6.3,243.7 0,243.7 0,239.7 6.3,239.7 6.3,10.3 0,10.3 0,6.3 6.3,6.3 6.3,0 10.3,0 
		10.3,6.3 17.4,6.3 54.2,35 94.6,2.6 97.1,5.7 54.2,40 16,10.3 10.3,10.3 10.3,239.7 16,239.7 54.2,210 97.1,244.3 94.6,247.4 
		54.2,215 17.4,243.7 10.3,243.7 	"/>
</g>
</svg>
