<svg width="39" height="100" viewBox="0 0 39 100" fill="none" xmlns="http://www.w3.org/2000/svg">
<path d="M6.66901 3.33333L7.98576 1.82795L6.66901 1.33333V3.33333ZM33.3451 26.6667L34.6162 28.2107L34.6618 25.1613L33.3451 26.6667ZM5.00176 50L3.73061 48.4559L3.32901 51.0963L5.00176 50ZM5.3345 100V0H1.3345V100H5.3345ZM0 5.33333H6.66901V1.33333H0V5.33333ZM5.35227 4.83872L32.0283 28.1721L34.6618 25.1613L7.98576 1.82795L5.35227 4.83872ZM32.0739 25.1226L3.73061 48.4559L6.27291 51.5441L34.6162 28.2107L32.0739 25.1226ZM3.32901 51.0963L35.0068 99.4297L38.3523 97.237L6.67451 48.9037L3.32901 51.0963Z" fill="url(#paint0_linear)"/>
<defs>
<linearGradient id="paint0_linear" x1="18.3398" y1="0" x2="18.3398" y2="100" gradientUnits="userSpaceOnUse">
<stop stop-color="#4FA8FF"/>
<stop offset="1" stop-color="#4FA8FF" stop-opacity="0"/>
</linearGradient>
</defs>
</svg>
