<svg id="b76a09fd-e025-4186-bef0-96ba01b5145c" data-name="圖層 1" xmlns="http://www.w3.org/2000/svg" viewBox="0 0 200 200"><defs><style>.e47e3780-6ddc-4daf-b1a3-4b2355f88d89{fill:#fff;}.b48c0615-faef-4ddf-bbcb-3f072fbedc76,.e33c094f-0127-476d-a5c6-a5df2cf8f87a{fill:#00263d;}.b48c0615-faef-4ddf-bbcb-3f072fbedc76{fill-rule:evenodd;}.f6202835-3bf4-42e2-a26e-4cac4524e4c6{fill:#e5e5e5;}</style></defs><path class="e47e3780-6ddc-4daf-b1a3-4b2355f88d89" d="M0,100A100,100,0,1,1,100,200,100,100,0,0,1,0,100Z"/><path class="e33c094f-0127-476d-a5c6-a5df2cf8f87a" d="M60.93,142.14A14.67,14.67,0,0,1,56.48,146a5.78,5.78,0,0,1,1,.92,18,18,0,0,0,4.71-4.22Zm.59,4.83a14.91,14.91,0,0,1-5,4,5.61,5.61,0,0,1,.94,1,17.46,17.46,0,0,0,5.29-4.46Zm-6.94-2.58H49.12v-1.06h5.46Zm0,2H49.12v-1.1h5.46Zm1.31-4h-8v4.86h8Zm.61,6H52.58a7.89,7.89,0,0,0-.61-1.11l-1.23.3c.13.24.27.53.42.81H47v1.08H56.5Zm-7.83,5.8a7.65,7.65,0,0,1-1.76,2.56,9.81,9.81,0,0,1,1,.73,10.17,10.17,0,0,0,2-2.95Zm.58-2.86h5.13v1.51H49.25Zm6.44,2.46V150.4H48v3.42h3.13v3c0,.16,0,.23-.25.23s-.8,0-1.53,0a4.19,4.19,0,0,1,.41,1.1,5.81,5.81,0,0,0,2.11-.2c.45-.18.57-.47.57-1.12v-3Zm-2.32.83A17.48,17.48,0,0,1,55,157.32l1-.53a16,16,0,0,0-1.69-2.59Zm8.51-2.54a13.48,13.48,0,0,1-5.92,5,5.35,5.35,0,0,1,.94,1,15.57,15.57,0,0,0,6.21-5.51Zm6.74-10.27A21.15,21.15,0,0,1,64.46,149a9.69,9.69,0,0,1,.75,1.32,16.79,16.79,0,0,0,1.55-2v9.84H68V146.25a29.85,29.85,0,0,0,1.84-4Zm2.88,4.75h3v1.8h-3Zm4.28-2.49a9.79,9.79,0,0,1-1.06,1.46H71.37a16.42,16.42,0,0,0,1.21-1.46Zm2.9,4.29h-3v-1.8h3Zm.52,1.4a28.48,28.48,0,0,1-3.2,1.89,6.66,6.66,0,0,0-1.64-2l.29-.26h5.27v-3.85H76.09a15.31,15.31,0,0,0,1.44-2l-.78-.57-.25.07H73.26c.2-.36.42-.7.6-1l-1.27-.24a13.31,13.31,0,0,1-4.12,4.81,3.85,3.85,0,0,1,.85.86c.34-.27.66-.52,1-.81v2.77h2.92a15.61,15.61,0,0,1-4.36,2.13,5.3,5.3,0,0,1,.72.86,17.59,17.59,0,0,0,4-2.1,5.19,5.19,0,0,1,.81.88A15.5,15.5,0,0,1,69.07,154a6.89,6.89,0,0,1,.72.88,18.86,18.86,0,0,0,5.07-2.9,5.65,5.65,0,0,1,.42,1,15.7,15.7,0,0,1-6.34,3.57,4.93,4.93,0,0,1,.79.95A18.27,18.27,0,0,0,75.57,154a3.34,3.34,0,0,1-.44,2.65,1.06,1.06,0,0,1-.92.34c-.32,0-.73,0-1.22-.07a2.79,2.79,0,0,1,.33,1.15,7.45,7.45,0,0,0,1.13,0,2,2,0,0,0,1.6-.61c.85-.8,1.08-2.9.32-4.94a7.52,7.52,0,0,0,.78-.32A9.56,9.56,0,0,0,80.3,157a4.26,4.26,0,0,1,.86-1,8.1,8.1,0,0,1-3-4.27,22.18,22.18,0,0,0,2-1.11Zm9.32-.21-2.08.59V146.7h2.08v-1.32H86.44v-3.6H85.11v3.6H82.76v1.32h2.35v3.85c-1,.27-1.88.5-2.6.66l.36,1.37c.69-.2,1.44-.43,2.24-.65v4.67c0,.27-.1.34-.35.34s-1,0-1.8,0a5.82,5.82,0,0,1,.42,1.26,5.83,5.83,0,0,0,2.43-.25c.45-.22.63-.58.63-1.35v-5.08l2.25-.67Zm2.27,6.33v-4.25h6v4.25Zm6-9.65v4.13h-6v-4.13Zm-3-1.27c.32-.89.68-2,1-3l-1.53-.18a22.66,22.66,0,0,1-.77,3.19h-3v13.17h1.31v-1h6V158h1.35V145Zm15.53,2.7v-.92h4v.92Zm4-4.27v.86h-4v-.86Zm-4,1.64h4V146h-4Zm4,4.44h1.26v-.79H117v-1h-2.35v-4.27h1.92v-1H106.38v1h1.69v4.27h-2.18v1h7.46Zm-7.92.33-.36-1.19-1.07.65v-2.66h1.52v-1.25H104v-3.6h-1.25v3.6h-2v1.25h2V150c-.82.47-1.55.9-2.15,1.23l.47,1.24c.5-.32,1.1-.65,1.68-1v5c0,.24-.08.29-.29.29s-.83,0-1.55,0a5,5,0,0,1,.39,1.24,4.69,4.69,0,0,0,2.11-.25c.43-.21.59-.56.59-1.28v-5.81Zm4,2h-1.89v-.94h1.89Zm-1.89,3.67V154.4h1.89v.92Zm1.89-1.87h-1.89v-1h1.89Zm-3.74-2.74h.81v4.68l-1.1.08.14,1,3.89-.39v2h1v-7.35h.63v-1H105.7Zm7.5,4.54v-1h2v1Zm2-4.54v.92h-2v-.92Zm-2,1.73h2v1h-2Zm3.87,2.81h-.86v-4.54H117v-1H111.4v1h.74v4.54h-.9v1h3.91v1.82h1.06v-1.82h.86Zm16.78-13.45h-1.23v7.4c0,.24-.07.31-.34.31s-1.11,0-2.1,0a3.81,3.81,0,0,1,.43,1.1,8.44,8.44,0,0,0,2.59-.2c.49-.2.65-.49.65-1.19Zm-3.4.74h-1.21v5.87h1.21ZM122.89,147h-3.14v3.35h1.08v-2.45h2.06v2.92h1.17v-2.92h2.21v1.3c0,.14,0,.19-.2.19a11.14,11.14,0,0,1-1.2,0,4.43,4.43,0,0,1,.36.87,4.63,4.63,0,0,0,1.69-.16c.4-.17.48-.4.48-.9V147h-3.34v-1h3.79v-1h-3.79V144h3.16v-.94h-3.16v-1.3h-1.17v1.3h-1.7a9.93,9.93,0,0,0,.4-1l-1.06-.25a8,8,0,0,1-1.42,2.71,8,8,0,0,1,1,.53,10.63,10.63,0,0,0,.69-1.08h2.14v1.1h-4v1h4ZM133,152.8a25.14,25.14,0,0,1-3.19,1.87,7.19,7.19,0,0,1-1.67-2h6.71v-1.12H128a11.32,11.32,0,0,0-.76-1.46l-1.24.36c.18.33.39.74.55,1.1h-7.59v1.12h6.26A20.87,20.87,0,0,1,118.6,155a4.26,4.26,0,0,1,.74,1,24.06,24.06,0,0,0,3.11-.9v.81a1.51,1.51,0,0,1-.75,1.37,4.09,4.09,0,0,1,.47.91v.1c.34-.22.91-.38,5.63-1.5a6.29,6.29,0,0,1,0-1l-4.13.89v-2.06a15.81,15.81,0,0,0,3.15-1.81c1.39,2.79,3.86,4.53,7.44,5.25a4.41,4.41,0,0,1,.74-1.08,11.67,11.67,0,0,1-4.38-1.56,23.7,23.7,0,0,0,3.26-1.86Zm8.06-11a20,20,0,0,1-4.44,7.14,7.25,7.25,0,0,1,.77,1.33,17.42,17.42,0,0,0,1.78-2.14v10h1.33V146.1a27.09,27.09,0,0,0,1.84-3.85Zm12.08,4.21v-1.28H145.6c.36-.79.7-1.6,1-2.43l-1.27-.34a19,19,0,0,1-4,6.89,9.64,9.64,0,0,1,1.05.9,19.56,19.56,0,0,0,2.55-3.74h1.25V158.2h1.35v-4.36h5.38v-1.26h-5.38v-2.72h5.13v-1.24h-5.13v-2.57Z"/><path class="b48c0615-faef-4ddf-bbcb-3f072fbedc76" d="M129.85,35v5h-10V35a5,5,0,0,0-5-5h-30a5,5,0,0,0-5,5v5h-10V35a5,5,0,0,0-10,0v80a5,5,0,0,0,10,0v-5h10v5a5,5,0,0,0,5,5h30a5,5,0,0,0,5-5v-5h10v5a5,5,0,0,0,10,0V35a5,5,0,0,0-10,0Zm-50,65h-10V90h10Zm-10-20h10V70h-10Zm10-20h-10V50h10Zm40,40h10V90h-10Zm10-20h-10V70h10Zm-10-20h10V50h-10Z"/><path class="f6202835-3bf4-42e2-a26e-4cac4524e4c6" d="M100,200A100,100,0,1,1,200,100,100.11,100.11,0,0,1,100,200ZM100,1a99,99,0,1,0,99,99A99.11,99.11,0,0,0,100,1Z"/></svg>