<svg id="b81a41e7-ab26-40b5-a3ca-4c9eb0d72a88" data-name="圖層 1" xmlns="http://www.w3.org/2000/svg" viewBox="0 0 200 200"><defs><style>.be8f6b05-03d1-4734-9605-4a46e4cf5994{fill:#fff;}.a38e7313-6ff6-4abb-848e-a242ae8acd35{fill:#00263d;}.ad228e18-95ec-4ddf-92ae-c7bf0b2e1828{fill:#e5e5e5;}</style></defs><path class="be8f6b05-03d1-4734-9605-4a46e4cf5994" d="M0,100A100,100,0,1,1,100,200,100,100,0,0,1,0,100Z"/><path class="a38e7313-6ff6-4abb-848e-a242ae8acd35" d="M47.6,153.3a21.91,21.91,0,0,1-.84,4.14,6.47,6.47,0,0,1,1,.36,24.34,24.34,0,0,0,.88-4.34Zm1.86.11a38.08,38.08,0,0,1,.43,3.85l1-.25a28.82,28.82,0,0,0-.51-3.78Zm1.94-.34a25.92,25.92,0,0,1,1,3.49l.93-.34a25.5,25.5,0,0,0-1.06-3.46ZM51.24,149c.2.52.43,1.09.63,1.67l-3.1.43a36.53,36.53,0,0,0,3.94-6l-1-.63a27.74,27.74,0,0,1-1.31,2.48l-1.89.18a27.9,27.9,0,0,0,2.71-4.82l-1.13-.49a24.51,24.51,0,0,1-2.3,4.54c-.36.54-.67.92-1,1a11.83,11.83,0,0,1,.38,1.15,8.08,8.08,0,0,1,2.48-.43,22.21,22.21,0,0,1-1.47,2.1c-.52.69-.92,1.14-1.28,1.21a6.33,6.33,0,0,1,.38,1.17c.34-.18.88-.31,4.89-.94.08.31.17.62.22.87l1-.4a30.88,30.88,0,0,0-1.21-3.44Zm6.46,4.8c-.38,0-.43-.14-.43-.61v-1.76H61v-1.06H58.31L59,150a14.73,14.73,0,0,0-.79-1.62h3v-1.06H59.66c.29-.78.61-1.81.88-2.69l-1-.28a20.3,20.3,0,0,1-.84,3H55.31v1.06h2.75l-.83.32a11.14,11.14,0,0,1,.7,1.59H55.49v1.06h.66v1.74c0,1.19.27,1.62,1.46,1.62h2.3a4.64,4.64,0,0,0,1.16-.09c0-.27-.08-.68-.11-1a4.7,4.7,0,0,1-1.06.09Zm-1.78-9.12a9.57,9.57,0,0,1,.93,2.57l.87-.3a8.66,8.66,0,0,0-1-2.56Zm6.87-2H53.63v15.6h1.21V143.83h6.73v12.89c0,.26-.07.33-.31.35s-.93,0-1.69,0a4.34,4.34,0,0,1,.34,1.19,5.8,5.8,0,0,0,2.27-.24c.47-.21.61-.54.61-1.28Zm6.83,1.9a11.86,11.86,0,0,0-1.28-2.66l-1.12.34A16,16,0,0,1,68.41,145ZM69.9,154c.47-1.89,1-4.63,1.32-6.73L70,147a66.39,66.39,0,0,1-1.17,7.24c-1.48.36-2.85.65-3.89.88l.32,1.31c1.88-.46,4.38-1.09,6.75-1.7l-.12-1.23Zm-4.08-6.55a46.44,46.44,0,0,1,.86,6.42l1.14-.21a54.33,54.33,0,0,0-.92-6.41Zm-.7-1h6.94v-1.24H65.12Zm14,9.72H73.7v-4.52h5.4Zm2.11-9.32v-1.28H76.67v-3.73H75.32v8.55H72.41v7.89H73.7v-.85h5.4v.78h1.35v-7.82H76.67v-3.54Zm11.28-3.1h3v2.88c0,1.35.25,1.86,1.42,1.86h1.17a2.69,2.69,0,0,0,.89-.1c0-.3-.08-.81-.09-1.15a3.5,3.5,0,0,1-.8.09H97c-.25,0-.29-.16-.29-.66v-4.18H91.25v2A4,4,0,0,1,89,148.26a6.29,6.29,0,0,1,.86,1,5.16,5.16,0,0,0,2.61-4.79Zm-5.22.34a15.14,15.14,0,0,0-1.38-2.32l-1,.52a16.38,16.38,0,0,1,1.35,2.42Zm2.43.81H82.9v1.1h6.8Zm-6,5.76H89v-1.06H83.67Zm0-3.4v1.06H89V147.2Zm12.87,3.74A9.63,9.63,0,0,1,94,154.38a9.86,9.86,0,0,1-2.54-3.44ZM87.78,156h-3v-3h3Zm9.63-6.39-.24.05H89.51v1.26h1.56l-.77.27a12.19,12.19,0,0,0,2.68,4A13.11,13.11,0,0,1,89,157v-5.08H83.66v6h1.17v-.84h4.1a4.64,4.64,0,0,1,.61,1.11A14.32,14.32,0,0,0,94,156.06a12.65,12.65,0,0,0,4.46,2.14A5.76,5.76,0,0,1,99.3,157a12.32,12.32,0,0,1-4.25-1.8,11.38,11.38,0,0,0,3.2-5.18Zm8.33-5.6a13.68,13.68,0,0,0-1.38-2.3l-1,.52a15.68,15.68,0,0,1,1.31,2.4Zm2.86.81h-7.39v1.1h7.39Zm-.81,4.7H102v1.06h5.79Zm-1.13,3.51v3h-3.35v-3Zm1.19-1.12h-5.71v6h1.17v-.84h4.54ZM102,148.26h5.85V147.2H102Zm15.14-.27h-3.69v-5.86H112.1V148h-3.53v1.32h3.53v8.93h1.35v-8.93h3.69Zm17.47-5.11h-8.78v1.26h8.78Zm-11.79-1.1a17.76,17.76,0,0,1-4.12,3.91,9.12,9.12,0,0,1,.79,1.06,21.91,21.91,0,0,0,4.61-4.46Zm.74,3.84a19.65,19.65,0,0,1-5,5.42,11.78,11.78,0,0,1,.94,1.11,21.36,21.36,0,0,0,2-1.87v8h1.33V148.8a21.32,21.32,0,0,0,2-2.72Zm11.58,2.17H125.06v1.28h6v7.42c0,.3-.11.38-.45.39s-1.53,0-2.81,0a4.45,4.45,0,0,1,.43,1.29,13.53,13.53,0,0,0,3.39-.2c.59-.21.79-.63.79-1.45v-7.44h2.72Zm16.61-5.5a23.22,23.22,0,0,1-1.85,3.4l1.08.47a28.93,28.93,0,0,0,2-3.39Zm-5,3.38a11.9,11.9,0,0,0-1.83-3.29l-1.07.52a13.25,13.25,0,0,1,1.75,3.36Zm-3.47,9.49-2.41.45v-5h2.28v-1.17H140.9v-2h1.67v-1.15h-4.09a15.86,15.86,0,0,0,1.84-2.47c1,.9,2.14,2,2.77,2.65l.74-1c-.65-.65-1.87-1.74-2.93-2.62l.34-.67-1.19-.4a12.53,12.53,0,0,1-3.47,4.43,7.17,7.17,0,0,1,.68,1.31l.77-.72v.67h1.68v2H137v1.17h2.76v5.24c-1.15.22-2.18.42-3,.54l.32,1.21,6.32-1.41Zm-6.19-3.39a28.75,28.75,0,0,1,.72,3.33l1-.27c-.14-.88-.48-2.23-.77-3.29Zm5.16,3.12c.36-.83.76-2.15,1.1-3.24l-1.06-.33a24.27,24.27,0,0,1-.88,3.28Zm10.15-8H149v-5.1h-1.28v5.1h-3.4v4.93a12.06,12.06,0,0,1-1,5.67,4.36,4.36,0,0,1,1,.79c1.07-1.82,1.23-4.48,1.23-6.44v-3.77h5.6v4.18c-2.07.48-4.16,1-5.58,1.24l.45,1.15c1.45-.34,3.33-.81,5.13-1.27v3.14c0,.26-.09.35-.36.35s-1.19,0-2.22,0a5.18,5.18,0,0,1,.42,1.26,8.58,8.58,0,0,0,2.75-.22c.52-.21.68-.61.68-1.35Zm-6.53,3.27a19,19,0,0,1,4.18,1.44l.54-1a18.55,18.55,0,0,0-4.2-1.32Z"/><path class="ad228e18-95ec-4ddf-92ae-c7bf0b2e1828" d="M100,200A100,100,0,1,1,200,100,100.11,100.11,0,0,1,100,200ZM100,1a99,99,0,1,0,99,99A99.11,99.11,0,0,0,100,1Z"/><path class="a38e7313-6ff6-4abb-848e-a242ae8acd35" d="M145,45.83V98.56c-.92,2.73-2.91,3.55-5.65,3.53-9.34-.08-18.69,0-28,0h-1v9.86h1c3.55,0,7.09,0,10.64,0a4,4,0,0,1,3.85,5.48,4.15,4.15,0,0,1-4.2,2.58H97.81q-9.7,0-19.42,0A4.32,4.32,0,0,1,75,118.74a4,4,0,0,1,3-6.81c3.57,0,7.15,0,10.72,0h1v-9.86H60.14C56.7,102.06,55,100.37,55,97V47.39c0-.32,0-.65,0-1a4.3,4.3,0,0,1,3.5-4,8.31,8.31,0,0,1,1.57-.12h79.8a7.77,7.77,0,0,1,1.74.15,4.18,4.18,0,0,1,3.06,2.64C144.78,45.36,144.9,45.59,145,45.83ZM61.59,48.91V95.46h76.84V48.91Z"/><path class="a38e7313-6ff6-4abb-848e-a242ae8acd35" d="M95.45,88.74a2.62,2.62,0,0,1-2.51-3.53c1.09-3.52,2.24-7,3.37-10.52q2.73-8.47,5.47-16.95c.54-1.67,1.63-2.51,3-2.35a2.64,2.64,0,0,1,2.25,3.54c-1,3.32-2.12,6.62-3.19,9.93Q101,77.63,98.22,86.39C97.7,88,96.83,88.74,95.45,88.74Z"/><path class="a38e7313-6ff6-4abb-848e-a242ae8acd35" d="M117,72.12c-2.82-1.31-5.51-2.53-8.17-3.82a4.11,4.11,0,0,1-1.52-1.25,2.58,2.58,0,0,1,.27-3.17,2.7,2.7,0,0,1,3.22-.6q4.19,1.92,8.35,3.88c1.65.76,3.29,1.54,4.94,2.28a2.86,2.86,0,0,1,0,5.39L111,80.89a2.72,2.72,0,0,1-3.87-1.18A2.77,2.77,0,0,1,108.72,76c2.43-1.15,4.87-2.27,7.31-3.41Z"/><path class="a38e7313-6ff6-4abb-848e-a242ae8acd35" d="M83,72.14l7.69,3.58a8.64,8.64,0,0,1,1.31.7,2.67,2.67,0,0,1-2.27,4.75,4.7,4.7,0,0,1-.74-.28L76,74.82a2.76,2.76,0,0,1-1.85-3.2,2.53,2.53,0,0,1,1.52-2q6.82-3.21,13.68-6.36a2.65,2.65,0,0,1,3.56,1.29,2.7,2.7,0,0,1-1.37,3.62c-2.55,1.23-5.13,2.4-7.71,3.6Z"/></svg>