<svg id="a5fcea8d-ad84-4d07-9a9b-f32ff7fd6c4b" data-name="圖層 1" xmlns="http://www.w3.org/2000/svg" viewBox="0 0 200 200"><defs><style>.e19182a3-6cad-440f-8c85-7264151d64b3{fill:#fff;}.f4865981-c0e7-42e1-a0dd-a3310f17f9f6{fill:#00263d;}.eb4feca9-1a83-493e-85b2-2ca743f77f86{fill:#e5e5e5;}</style></defs><path class="e19182a3-6cad-440f-8c85-7264151d64b3" d="M0,100.16a100,100,0,1,1,100,100A100,100,0,0,1,0,100.16Z"/><path class="f4865981-c0e7-42e1-a0dd-a3310f17f9f6" d="M51.2,146.77a16.31,16.31,0,0,1-1,6c-.58-.53-1.17-1-1.71-1.5.31-1.26.63-2.79.94-4.35Zm1.93,9a22.32,22.32,0,0,0-2-2.16,17.46,17.46,0,0,0,1.21-6.87l.9-.08v-1.17l-.9.06v-1.23H51.2v1.28l-1.53.08c.22-1.32.42-2.6.52-3.77L49,141.82c-.1,1.19-.28,2.54-.48,3.89l-1.64.07L47,147l1.28-.07c-.32,1.76-.7,3.45-1.06,4.68.77.66,1.64,1.44,2.45,2.23a11,11,0,0,1-2.9,3.44,3.6,3.6,0,0,1,.88.81,11.29,11.29,0,0,0,2.88-3.39,26.41,26.41,0,0,1,1.77,2Zm2.66-2.14A8,8,0,0,1,53,157a4.51,4.51,0,0,1,.9.95,9.73,9.73,0,0,0,2.93-4Zm.22-6.08h4.26v1.63H56Zm4.26-2.63v1.58H56v-1.58ZM63.15,153v-1.15h-4.3v-1.6h2.7v-5.38h1.6v-1.17h-1.6v-2H60.27v2H56v-2H54.78v2h-1.6v1.17h1.6v5.38h2.78v1.6H53.22V153h4.34v5.19h1.29V153Zm-3.49,1a34.76,34.76,0,0,1,2.63,3.78l1-.5a31,31,0,0,0-2.7-3.71Zm20-8.64H78.26v-1.27h1.45Zm0,2.23H78.26v-1.33h1.45Zm-6-1.33h1.39v1.33H73.72Zm0-2.17h1.39v1.27H73.72Zm3.64,2.17v1.33H76v-1.33Zm-1.35-.9v-1.27h1.35v1.27Zm4.78-2.23H78.4v-1.37H77.3v1.37H76v-1.37h-1.1v1.37H72.68v5.42h8.11Zm.45,6.35h-9v1h9Zm-6.89,2.79h4.77v1.52H74.35Zm6,2.42v-3.33h-7.2v3.33ZM71,149.52H66.23v-1.19H71ZM67,143.42h3.08v1.15h-2v2.79H67ZM69,147.36v-1.94h1.17v1.94Zm2.29-5h-5.3v5h-.73v2.58h.88v2.95a8.28,8.28,0,0,1-1,4.64,4.43,4.43,0,0,1,.94.72,9.74,9.74,0,0,0,1.24-5.36v-2.41h2.83v3c-1.1.57-2.14,1.12-2.92,1.44l.51.95c.75-.43,1.56-.93,2.41-1.46v2.36c0,.18-.06.25-.25.25H68.28a4.39,4.39,0,0,1,.38,1,5.89,5.89,0,0,0,2-.18c.39-.2.5-.48.5-1.06v-6.89H72v-2.58h-.77ZM69.9,152.62a12.3,12.3,0,0,0-2-1.46l-.61.61a14.09,14.09,0,0,1,1.91,1.59Zm8.79,4.17c.27-.5.59-1.13.9-1.69l-1.23-.36c-.18.58-.5,1.43-.77,2H75.86c-.18-.57-.5-1.38-.77-2l-1,.3a12.71,12.71,0,0,1,.63,1.69H72.1v1.05h9.31v-1.05Zm9.23-14.5a18.84,18.84,0,0,1-5,7,10.5,10.5,0,0,1,1.19,1.08,24.2,24.2,0,0,0,5.27-7.65Zm5.24,9.59c.72,1,1.53,2.12,2.23,3.24l-8.31.47a47.49,47.49,0,0,0,5.27-7.72l-1.49-.63a40.37,40.37,0,0,1-4.54,7.09c-.68.84-1.21,1.44-1.69,1.55a7.62,7.62,0,0,1,.52,1.42c.7-.25,1.69-.31,11-1,.37.65.72,1.23,1,1.73l1.33-.74a54.51,54.51,0,0,0-4-6Zm-2.7-9.67v1.35h3.35a15.07,15.07,0,0,0,4.73,6.83,7.1,7.1,0,0,1,1-1.25,13,13,0,0,1-4.77-6.93Zm12.64,3.53h4V147h-4Zm4-2.25v1.35h-4v-1.35Zm.23,7.63c.13.22.26.47.38.72l-1.82.15a20.87,20.87,0,0,0,2.72-2.49l-.79-.52a8.56,8.56,0,0,1-.79.94l-1.33.05a9.5,9.5,0,0,0,1.4-1.64l-.61-.32h1.87v-5.49h-6.55V158.2h1.28V148h3.09a8.48,8.48,0,0,1-1.28,1.64,1.06,1.06,0,0,1-.59.32,8.31,8.31,0,0,1,.31.92,6.36,6.36,0,0,1,1.67-.22,9.09,9.09,0,0,1-1.08.94,2,2,0,0,1-1,.5,4.19,4.19,0,0,1,.27.89,20.69,20.69,0,0,1,3.54-.45c.08.21.17.41.22.56h-.68v1.58a2.23,2.23,0,0,1,0,.36h-1.69v-1.68H105v2.52h2.39a3,3,0,0,1-2,1.39,3.22,3.22,0,0,1,.65.79c2.23-.79,2.56-2,2.56-3.36v-1.6h-.18l.65-.26a15.51,15.51,0,0,0-1-2Zm6.07,5.33v-3.06h-1v1.66h-1.73v-1.94h-1v4.82h1v-2h1.73v.56ZM111.25,147v-1.28h4.14V147Zm4.14-3.53v1.35h-4.14v-1.35Zm1.3-1H110V148h1.12a8.67,8.67,0,0,1-1.3,1.66,1.12,1.12,0,0,1-.59.32,5.62,5.62,0,0,1,.32.92,5,5,0,0,1,1.69-.24c-.5.45-.9.81-1.09,1a2.08,2.08,0,0,1-1,.48,7.85,7.85,0,0,1,.27.9,16.65,16.65,0,0,1,3.51-.46,4.62,4.62,0,0,1,.29.61l.72-.33a18.2,18.2,0,0,0-1-1.94l-.69.23c.13.22.25.47.38.72l-1.8.15a18.61,18.61,0,0,0,2.72-2.5l-.78-.51a11.56,11.56,0,0,1-.79.94l-1.33.07a12.79,12.79,0,0,0,1.4-1.64l-.66-.34h4v8.5c0,.23-.07.32-.31.32s-1,0-1.78,0a6.41,6.41,0,0,1,.42,1.33,5.77,5.77,0,0,0,2.34-.27c.48-.21.63-.62.63-1.36Zm18.12.32H126v1.27h8.78ZM123,141.75a17.93,17.93,0,0,1-4.12,3.9c.23.25.59.78.79,1.06a22.15,22.15,0,0,0,4.61-4.46Zm.74,3.83a19.8,19.8,0,0,1-5,5.42,13.2,13.2,0,0,1,.94,1.11,21.36,21.36,0,0,0,2-1.87v8H123v-9.46a22.34,22.34,0,0,0,2-2.72Zm11.57,2.18H125.25V149h6v7.41c0,.31-.11.38-.45.4s-1.53,0-2.81,0a4.61,4.61,0,0,1,.43,1.3,13.43,13.43,0,0,0,3.38-.2c.6-.22.8-.63.8-1.46V149h2.71ZM152,142.25a22.36,22.36,0,0,1-1.86,3.4l1.08.47a27.44,27.44,0,0,0,2-3.38Zm-5,3.39a11.87,11.87,0,0,0-1.84-3.3l-1.06.52a13.14,13.14,0,0,1,1.75,3.37Zm-3.47,9.48-2.42.45v-5h2.29V149.4h-2.29v-2h1.68v-1.15h-4.09a15.77,15.77,0,0,0,1.84-2.46c1,.9,2.14,2,2.77,2.64l.74-1c-.65-.65-1.87-1.75-2.94-2.63l.35-.67-1.19-.39a12.52,12.52,0,0,1-3.48,4.42,6.47,6.47,0,0,1,.69,1.32l.77-.72v.66h1.68v2h-2.76v1.17h2.76v5.24c-1.16.21-2.18.41-3,.53l.32,1.21c1.73-.38,4.09-.92,6.32-1.4Zm-6.2-3.38a24.77,24.77,0,0,1,.72,3.33l1-.27c-.14-.88-.48-2.24-.77-3.3Zm5.17,3.11c.36-.83.76-2.14,1.1-3.24l-1.06-.32a24.15,24.15,0,0,1-.89,3.27Zm10.15-8h-3.44v-5.1h-1.27v5.1h-3.41v4.93a12.18,12.18,0,0,1-1,5.67,5.25,5.25,0,0,1,1,.79c1.06-1.82,1.23-4.48,1.23-6.44v-3.76h5.59v4.17c-2.07.49-4.15,1-5.58,1.24l.45,1.16c1.46-.34,3.33-.81,5.13-1.28v3.15c0,.25-.09.34-.36.34s-1.18,0-2.21,0a4.75,4.75,0,0,1,.41,1.26,9.05,9.05,0,0,0,2.76-.21c.52-.22.68-.61.68-1.35Zm-6.53,3.28a18.24,18.24,0,0,1,4.17,1.43l.54-1a18.47,18.47,0,0,0-4.19-1.31Z"/><path class="eb4feca9-1a83-493e-85b2-2ca743f77f86" d="M100,200A100,100,0,1,1,200,100,100.11,100.11,0,0,1,100,200ZM100,1a99,99,0,1,0,99,99A99.11,99.11,0,0,0,100,1Z"/><path class="f4865981-c0e7-42e1-a0dd-a3310f17f9f6" d="M97.36,64.63a2.64,2.64,0,0,0,5.28,0V56.37H97.36Z"/><path class="f4865981-c0e7-42e1-a0dd-a3310f17f9f6" d="M89.45,77.82A13.19,13.19,0,0,1,100,72.54a7.92,7.92,0,0,1-7.91-7.91V56.37H89.45A13.19,13.19,0,0,0,76.27,69.55V72.8A13.18,13.18,0,0,1,89.45,77.82Z"/><path class="f4865981-c0e7-42e1-a0dd-a3310f17f9f6" d="M110.55,77.82a13.18,13.18,0,0,1,13.18-5V69.55a13.19,13.19,0,0,0-13.18-13.18h-2.64v8.26A7.92,7.92,0,0,1,100,72.54,13.19,13.19,0,0,1,110.55,77.82Z"/><path class="f4865981-c0e7-42e1-a0dd-a3310f17f9f6" d="M100,56.37A13.19,13.19,0,1,0,86.82,43.18,13.2,13.2,0,0,0,100,56.37Z"/><path class="f4865981-c0e7-42e1-a0dd-a3310f17f9f6" d="M142.36,99.08h-2.81V91a2.65,2.65,0,0,0-1.8-2.51L129,85.58a7.91,7.91,0,1,0-1.67,5l7,2.32v6.18H123.73v-.44a13.15,13.15,0,0,1-13.18-5,13.21,13.21,0,0,1-2.64,2.64v2.82h-5.27v-5.9a7.91,7.91,0,1,0-5.28,0v5.9H92.09V96.26a13.21,13.21,0,0,1-2.64-2.64,13.16,13.16,0,0,1-13.18,5v.44H65.72V92.9l7-2.32a7.91,7.91,0,1,0-1.67-5l-8.75,2.91A2.65,2.65,0,0,0,60.45,91v8.08H57.64A2.64,2.64,0,0,0,55,101.72v15.64A2.64,2.64,0,0,0,57.64,120h84.72a2.64,2.64,0,0,0,2.64-2.64V101.72A2.64,2.64,0,0,0,142.36,99.08Z"/></svg>