<svg id="a89b35ac-8de5-4039-8fad-dfd0ea19a814" data-name="圖層 1" xmlns="http://www.w3.org/2000/svg" viewBox="0 0 200 200"><defs><style>.f9b78406-e7b2-4d28-98c9-6df7885635a1{fill:#fff;}.f3d19b7d-747e-47d5-8a04-9badf1449e3e{fill:#00263d;}.bbac3efb-918c-45f9-b0bb-db13316d1f2d{fill:#e5e5e5;}</style></defs><path class="f9b78406-e7b2-4d28-98c9-6df7885635a1" d="M0,100A100,100,0,1,1,100,200,100,100,0,0,1,0,100Z"/><path class="f3d19b7d-747e-47d5-8a04-9badf1449e3e" d="M58.26,147.25H51.11v-3.4h7.15Zm1.35-4.68H49.82v6h9.79Zm-7.36,9.15V156H48.48v-4.26Zm-5,6.53h1.27v-1h3.77v.81h1.31v-7.67H47.21ZM56.82,156v-4.26H60.9V156Zm-1.3-5.56v7.83h1.3v-1H60.9v.85h1.32v-7.71ZM66.83,148h3v-6.12H68.73v4.95h-1.9V142.2H65.6V149c0,2.61-.16,6.21-1.26,8.76a9.33,9.33,0,0,1,1.21.45,20.88,20.88,0,0,0,1.2-6.58h1.88v6.56h1.26V150.5H66.81c0-.51,0-1,0-1.46Zm5.59,1.74v-2h2.51a7.47,7.47,0,0,1-.58,2Zm0-4.93H75v1.93H72.42Zm6.27,1.93H76.2v-1.93h2.49Zm0,3h-3.1a9.3,9.3,0,0,0,.54-2h2.56Zm2.16,3.67H77.68v-2.14H76.44v2.14H72.91a8.2,8.2,0,0,0,2.18-2.57H80v-7.15H75.16c.25-.46.54-1,.79-1.6l-1.49-.23a14,14,0,0,1-.74,1.83H71.16v7.15h2.58a7.83,7.83,0,0,1-2.07,2,5.71,5.71,0,0,1,.7.55H70.44v1.21h6v3.65h1.24v-3.65h3.17Zm17.84-2.75H91.31v-6.28h6.37V143H83.6v1.31h6.34v6.28H82.67v1.31h7.27v6.3h1.37v-6.3h7.38Zm-13.83-5a20.51,20.51,0,0,1,1.62,4.12l1.26-.43A17.1,17.1,0,0,0,86,145.22Zm9.54,4.18a35.92,35.92,0,0,0,2.22-4.23l-1.41-.4a27.42,27.42,0,0,1-1.94,4.25Zm20,6.3h-2.7v-8.28h2.7Zm-11.5-8.28h2.56v8.28h-2.56Zm7.58,2h-3.8v-2h3.8Zm-3.8,4.21h3.8v2.09h-3.8Zm3.8-1.1h-3.8v-2h3.8Zm6.14-8.59V143H100.77v1.27h6.9c-.15.74-.33,1.57-.52,2.25h-5.57v11.72h1.3v-.95h11.5v.95h1.35V146.53h-7.22c.24-.68.49-1.49.71-2.25Zm11.55-.57h3v2.88c0,1.35.25,1.85,1.42,1.85h1.17a3,3,0,0,0,.88-.09c0-.3-.07-.81-.09-1.15a4,4,0,0,1-.79.09h-1.06c-.25,0-.29-.16-.29-.67v-4.17h-5.47v2a4,4,0,0,1-2.23,3.85,6.7,6.7,0,0,1,.86,1,5.18,5.18,0,0,0,2.61-4.78Zm-5.22.34a16,16,0,0,0-1.38-2.32l-1,.52a16.32,16.32,0,0,1,1.35,2.41Zm2.43.81h-6.8V146h6.8Zm-6,5.76h5.31v-1.06h-5.31Zm0-3.4v1.06h5.29v-1.06ZM132.2,151a9.53,9.53,0,0,1-2.54,3.44,9.92,9.92,0,0,1-2.53-3.44ZM123.44,156h-3v-3h3Zm9.63-6.39-.24,0h-7.67V151h1.57l-.77.27a12.14,12.14,0,0,0,2.68,4,13.06,13.06,0,0,1-4,1.82V152h-5.31V158h1.17v-.85h4.11a5.32,5.32,0,0,1,.61,1.12,14.4,14.4,0,0,0,4.46-2.2,12.63,12.63,0,0,0,4.47,2.15A5.76,5.76,0,0,1,135,157a12.24,12.24,0,0,1-4.25-1.8,11.44,11.44,0,0,0,3.2-5.18Zm8.33-5.6a13.4,13.4,0,0,0-1.39-2.3l-1,.52a15.62,15.62,0,0,1,1.31,2.39Zm2.86.81h-7.4V146h7.4Zm-.81,4.7h-5.79v1.06h5.79Zm-1.13,3.51v3H139v-3Zm1.19-1.12H137.8V158H139v-.85h4.54Zm-5.85-3.67h5.85v-1.06h-5.85Zm15.13-.27H149.1v-5.87h-1.35V148h-3.52v1.31h3.52v8.93h1.35v-8.93h3.69Z"/><path class="bbac3efb-918c-45f9-b0bb-db13316d1f2d" d="M100,200A100,100,0,1,1,200,100,100.11,100.11,0,0,1,100,200ZM100,1a99,99,0,1,0,99,99A99.11,99.11,0,0,0,100,1Z"/><path class="f3d19b7d-747e-47d5-8a04-9badf1449e3e" d="M143.16,46.24a1.23,1.23,0,0,0,1.74,0c1.13-1.15,2.59-2.56,3.52-3.44a1.22,1.22,0,0,0,0-1.73c-1.21-1.24-3.44-3.54-5-5.25a1.22,1.22,0,0,0-1.76,0l-3.59,3.59a1.22,1.22,0,0,0,0,1.72Z"/><path class="f3d19b7d-747e-47d5-8a04-9badf1449e3e" d="M148.27,47.07c-2.2,2.08-7.58,7.53-10.25,10.17a2.16,2.16,0,0,0-.69,1.71c0,14.06,0,28,0,42.07H80.9V56.65s17.54,0,34.77,0a2.27,2.27,0,0,0,1.46-.5c3.13-3.05,6.21-6.16,9.29-9.27H106a10.1,10.1,0,0,1,3.23-9.17c5.31-4.94,13.11-7.83,16.4-14.6.56-1.22-.36-2.7-1.73-3.29a2.24,2.24,0,0,0-3.2,1.1,15.51,15.51,0,0,1-5.47,5.73c-8.93,5.31-15,8.71-14.9,20.29H72.23A3.27,3.27,0,0,0,69,50.19v57.35a3.28,3.28,0,0,0,3.28,3.28h73.69a3.28,3.28,0,0,0,3.28-3.28V47.47A.55.55,0,0,0,148.27,47.07Z"/><rect class="f3d19b7d-747e-47d5-8a04-9badf1449e3e" x="51.24" y="46.81" width="14.04" height="30.16" rx="3.16"/><rect class="f3d19b7d-747e-47d5-8a04-9badf1449e3e" x="51.24" y="80.66" width="14.04" height="30.16" rx="3.16"/><path class="f3d19b7d-747e-47d5-8a04-9badf1449e3e" d="M102.19,75.08a6.28,6.28,0,0,0-1.62,2.77c-.44,1.58-1,3.73-1.46,5.38A1.47,1.47,0,0,0,100.92,85c1.81-.49,3.58-1,5.33-1.49a6.64,6.64,0,0,0,2.9-1.71c9.55-9.52,27.49-27.28,32-31.68a1.43,1.43,0,0,0,0-2l-5-5a1.41,1.41,0,0,0-2,0C129.72,47.55,111.81,65.44,102.19,75.08Z"/><rect class="f3d19b7d-747e-47d5-8a04-9badf1449e3e" x="50.8" y="115.18" width="98.4" height="4.82" rx="2.41"/></svg>