<svg id="ae708364-0dd7-42aa-8535-f854a283e8e0" data-name="圖層 1" xmlns="http://www.w3.org/2000/svg" viewBox="0 0 200 200"><defs><style>.b9e1a80b-8a48-4daf-9778-79761d681100{fill:#fff;}.e1c3cb18-9cc4-44b9-a071-0541c37b963f{fill:#00263d;}.a5007088-7431-41cd-a2d2-126de91f2638{fill:#e5e5e5;}</style></defs><path class="b9e1a80b-8a48-4daf-9778-79761d681100" d="M0,100A100,100,0,1,1,100,200,100,100,0,0,1,0,100Z"/><path class="e1c3cb18-9cc4-44b9-a071-0541c37b963f" d="M51.8,143.84A33.63,33.63,0,0,0,48.43,142l-.74.95c1.1.6,2.59,1.46,3.33,2Zm-.92,4.86c-.79-.5-2.29-1.29-3.33-1.81l-.74,1c1.1.57,2.57,1.44,3.31,1.94ZM48.36,158c1.06-1.66,2.32-3.89,3.26-5.78l-1-.88a52.06,52.06,0,0,1-3.4,5.76Zm12.35-1.77H54.3v-3.71h6.41Zm2.44-7.9V147H58.22v-3.11a28.53,28.53,0,0,0,4.18-1l-1.06-1a44,44,0,0,1-8.72,1.6,5.93,5.93,0,0,1,.36,1.13c1.28-.12,2.65-.28,4-.48V147H51.76v1.3h5.18v3H53.07v6.95H54.3v-.76h6.41v.67H62v-6.86H58.22v-3Zm3.3,3.11v-1.31h2.27v1.31Zm0-3.49h2.27v1.3H66.45Zm5.83,0v1.3H69.92v-1.3Zm0,3.49H69.92v-1.31h2.36ZM77,145.93c0-1.26,0-2.59,0-3.94H75.79c0,1.37,0,2.68,0,3.94H73.61v1.26h2.11c-.16,3.39-.63,6.28-2.2,8.41v-.09c-1.2.14-2.43.27-3.6.38v-1.43h3.53v-1H69.92v-1.1h3.49V147H69.92v-1.13h3.82v-1H69.92V143.5a32,32,0,0,0,3.51-.52l-.66-1a56.35,56.35,0,0,1-7.76.89,4,4,0,0,1,.32,1c1.06,0,2.23-.11,3.39-.2v1.19H64.83v1h3.89V147H65.35v5.35h3.37v1.1H65.31v1h3.41V156c-1.48.15-2.83.27-3.91.36l.2,1.17c2-.21,4.8-.52,7.54-.84-.25.21-.5.43-.79.63a4.48,4.48,0,0,1,1,.95c3.17-2.38,4-6.3,4.21-11.09h2.57c-.18,6.54-.39,8.91-.81,9.43a.66.66,0,0,1-.64.29c-.35,0-1.14,0-2-.09a3.66,3.66,0,0,1,.38,1.26,12,12,0,0,0,2.17,0,1.44,1.44,0,0,0,1.21-.66c.61-.76.77-3.26,1-10.8,0-.18,0-.69,0-.69Zm7.69-.21h1.94V147H84.7Zm4.91,0V147H87.83v-1.31Zm-3,5.31h1.19v-2.31a13.4,13.4,0,0,1,2.36,1.57l.59-.79A12.33,12.33,0,0,0,88.34,148l-.51.62v-.67h2.94v-3.1H87.83v-.91h3.39v-1H87.83v-1.13H86.64v1.13H83.08v1h3.56v.91h-3v3.1h2.61a9.05,9.05,0,0,1-3.44,2.36,5.35,5.35,0,0,1,.78.88,10.56,10.56,0,0,0,3.09-2.3Zm5,4.06H96.8v-1H91.65v-1.4H98v-1.12H84.11v1.12h6.22v3.92H87.15v-3H85.87v3h-3v1.15H99.14v-1.15H91.65Zm1.89-10.18,3.11,0a7.35,7.35,0,0,1-1.44,2.73A9.48,9.48,0,0,1,93.54,144.91Zm5.54,0v-1.12h-5a14.23,14.23,0,0,0,.63-1.73l-1.23-.27a9.61,9.61,0,0,1-2.55,4.56,7.65,7.65,0,0,1,.9.9A12,12,0,0,0,92.89,146a9.92,9.92,0,0,0,1.55,2.41A10,10,0,0,1,91,150.27a6.55,6.55,0,0,1,.77.95,11.1,11.1,0,0,0,3.51-2,9.83,9.83,0,0,0,3.28,2,4.59,4.59,0,0,1,.75-1A9.31,9.31,0,0,1,96,148.43a9.44,9.44,0,0,0,1.89-3.54Zm14.19,7.31v3.72h-8.36V152.2Zm-9.71,6h1.35v-1h8.36v.94h1.38V151H103.56ZM105,147.61a20.11,20.11,0,0,0,4.12-3.55,21.14,21.14,0,0,0,4.37,3.55Zm4.3-5.89a18.66,18.66,0,0,1-8.52,6.5,5.35,5.35,0,0,1,1,1.17,26.94,26.94,0,0,0,2.75-1.46v.92h9v-1.23a29,29,0,0,0,2.91,1.61,4.09,4.09,0,0,1,.92-1.21,21.3,21.3,0,0,1-7.47-4.91c.2-.27.4-.53.58-.81Zm16.61,13c-.41-.57-2.3-2.86-3-3.61,0-.35.07-.69.1-1h2.92v-1.23h-2.86c0-.39,0-.79,0-1.15V146h2.5v-1.21h-2.5V142h-1.26v2.79h-2.6V146h2.6v1.78c0,.36,0,.76,0,1.15h-3v1.23h2.89c-.18,2.41-.81,5.13-3,6.91a4.58,4.58,0,0,1,.93.94,9.73,9.73,0,0,0,3-5.46c.79,1.05,1.89,2.5,2.32,3.22Zm1.93-5.31H133v1.79h-5.13Zm0-2.88H133v1.79h-5.13Zm0-2.86H133v1.75h-5.13Zm4.71,13c-.37,0-.43-.06-.43-.44v-3.85h2.14v-9.95h-7.66v9.95h1.71c-.29,2.22-1.07,3.87-3.78,4.77a3.37,3.37,0,0,1,.75,1c3-1.1,4-3.06,4.3-5.78h1.3v3.85c0,1.26.29,1.62,1.51,1.62h1.5c1,0,1.31-.45,1.44-2.14a3.48,3.48,0,0,1-1.12-.48c0,1.26-.13,1.44-.45,1.44Zm4.36,1.06c2.54-.11,6.46-.33,10.17-.52l0-1-10.32.47Zm8-4.57h-2.3v-.87h2.3Zm0,1.6h-2.3v-.87h2.3Zm-5.77-.87h2.32v.87H139.1Zm0-1.6h2.32v.87H139.1Zm-1.1-.74v4h8v-4Zm6.86-5H142.5v-1h2.36Zm-2.36-2.77h2.36v.88H142.5Zm3.53-.84H142.5v-1.16h-1.23v1.16H138v.84h3.31v.88h-4.46v.92h4.46v1h-3.38v.85h3.38v.81h-3.51v.85h3.51v.82h-4.35v.94H147v-.94H142.5v-.82h3.78v-.85H142.5v-.81H146v-1.82h1.11v-.92H146Zm3,1h-1.22v9.9H149Zm2.18-1.8v14.4c0,.28-.13.37-.43.39s-1.19,0-2.23,0a4.88,4.88,0,0,1,.41,1.3,9.26,9.26,0,0,0,2.79-.23c.52-.24.72-.62.72-1.44v-14.4Z"/><path class="a5007088-7431-41cd-a2d2-126de91f2638" d="M100,200A100,100,0,1,1,200,100,100.11,100.11,0,0,1,100,200ZM100,1a99,99,0,1,0,99,99A99.11,99.11,0,0,0,100,1Z"/><path class="e1c3cb18-9cc4-44b9-a071-0541c37b963f" d="M143.2,57.94h-7.61a.08.08,0,0,1-.07-.08V55A3.23,3.23,0,0,0,133,51.78a3.11,3.11,0,0,0-3.67,3v3a.08.08,0,0,1-.07.08h-9.52a2.83,2.83,0,0,1-2.83-2.83V50.25a.07.07,0,0,0-.07-.07,6.21,6.21,0,0,1,0-12.42.07.07,0,0,0,.07-.07v-3A4.73,4.73,0,0,1,121.62,30H143.2a4.73,4.73,0,0,1,4.73,4.73V53.21A4.73,4.73,0,0,1,143.2,57.94Z"/><path class="e1c3cb18-9cc4-44b9-a071-0541c37b963f" d="M100.32,42.42h1.05v7.76a6.21,6.21,0,1,0,0,12.41v4.66H95.16a6.21,6.21,0,1,0-12.41,0H73.51A26.92,26.92,0,0,1,100.32,42.42Z"/><path class="e1c3cb18-9cc4-44b9-a071-0541c37b963f" d="M83.29,90.1a26.74,26.74,0,0,1-9.83-19.75H85.85v-3.1a3.11,3.11,0,0,1,6.21,0v3.1h9.31v6.21a6.21,6.21,0,1,0,0,12.42v12.41H90.51V96Z"/><path class="e1c3cb18-9cc4-44b9-a071-0541c37b963f" d="M101.37,120a7.77,7.77,0,0,1-7.6-6.21H109A7.78,7.78,0,0,1,101.37,120Z"/><path class="e1c3cb18-9cc4-44b9-a071-0541c37b963f" d="M110.68,111.6H92.06a1.56,1.56,0,0,1,0-3.11h18.62a1.56,1.56,0,1,1,0,3.11Z"/><path class="e1c3cb18-9cc4-44b9-a071-0541c37b963f" d="M113.79,106.34H89a1.56,1.56,0,1,1,0-3.11h24.83a1.56,1.56,0,0,1,0,3.11Z"/><path class="e1c3cb18-9cc4-44b9-a071-0541c37b963f" d="M119.45,90.1,112.24,96v5.39h-7.76V85.87h-3.11a3.1,3.1,0,0,1,0-6.2h3.11V70.35h9.31v-3.1a3.11,3.11,0,0,1,6.21,0v3.1h9.29A26.78,26.78,0,0,1,119.45,90.1Z"/></svg>