<svg id="ee9d2954-6ffe-4e4c-ba72-26382e454bed" data-name="圖層 1" xmlns="http://www.w3.org/2000/svg" viewBox="0 0 200 200"><defs><style>.b9db92ee-5caa-4ac0-9ae9-60012b5295e0{fill:#fff;}.a427539c-caf2-4b65-99a8-4481aa88bd82{fill:#00263d;}.a941c6cd-81b1-49e9-9471-995ba7565db5{fill:#e5e5e5;}</style></defs><path class="b9db92ee-5caa-4ac0-9ae9-60012b5295e0" d="M100,.5h0A99.5,99.5,0,0,1,199.5,100h0A99.5,99.5,0,0,1,100,199.5h0A99.5,99.5,0,0,1,.5,100h0A99.5,99.5,0,0,1,100,.5Z"/><path class="a427539c-caf2-4b65-99a8-4481aa88bd82" d="M51.84,154.81H49.46V149.5h2.38ZM53,156v-7.7H49.46A30.21,30.21,0,0,0,50.6,144h2.52v-1.24H47.05V144h2.27a17.17,17.17,0,0,1-2.57,7,7.7,7.7,0,0,1,.59,1.46,11.47,11.47,0,0,0,1-1.51v6.51h1.15V156ZM55,151.22v-1.81h2.55v.91c0,.31,0,.6,0,.9Zm0-4.62h2.55v1.8H55Zm6.51,0v1.8H58.86v-1.8Zm0,4.62h-2.7c0-.3,0-.59,0-.9v-.91h2.68Zm1.24,1.07v-6.75H58.86v-1.7h4.3v-1.22H53.48v1.22h4.1v1.7H53.84v6.75h3.63a5.91,5.91,0,0,1-.91,2.52,5.73,5.73,0,0,1-1.57-2l-1.13.29a7.69,7.69,0,0,0,1.92,2.59,7.87,7.87,0,0,1-3.18,1.58,7,7,0,0,1,.79,1.07,8.89,8.89,0,0,0,3.36-1.91,13.87,13.87,0,0,0,5.93,1.91,4,4,0,0,1,.77-1.17,13.65,13.65,0,0,1-5.9-1.64,7.11,7.11,0,0,0,1.2-3.22Zm16.83-6.83H78.16v-1.27h1.45Zm0,2.24H78.16v-1.34h1.45Zm-6-1.34H75v1.34H73.62Zm0-2.17H75v1.27H73.62Zm3.64,2.17v1.34H75.91v-1.34Zm-1.35-.9v-1.27h1.35v1.27Zm4.78-2.23H78.3v-1.37H77.2v1.37H75.91v-1.37h-1.1v1.37H72.58v5.42h8.11Zm.45,6.36h-9v1h9Zm-6.89,2.79H79v1.51H74.25Zm6,2.41v-3.33h-7.2v3.33Zm-9.41-5.19H66.13v-1.18h4.72Zm-3.91-6.1H70v1.15h-2v2.79H66.94Zm1.91,3.94V145.5H70v1.94Zm2.29-5h-5.3v5h-.73V150H66V153a8.28,8.28,0,0,1-1,4.64,4.43,4.43,0,0,1,.94.72A9.74,9.74,0,0,0,67.12,153v-2.41H70v3c-1.1.58-2.14,1.12-2.92,1.44l.51,1c.75-.43,1.56-.93,2.41-1.45v2.35c0,.18-.06.26-.25.26s-.81,0-1.52,0a4.56,4.56,0,0,1,.38,1,5.89,5.89,0,0,0,2-.18c.39-.19.5-.48.5-1.06V150h.83v-2.58h-.77ZM69.8,152.7a12.94,12.94,0,0,0-2-1.46l-.61.61a14.87,14.87,0,0,1,1.91,1.59Zm8.79,4.18c.27-.51.59-1.14.9-1.7l-1.23-.36c-.18.58-.5,1.43-.77,2.06H75.76a20.92,20.92,0,0,0-.77-2l-1,.3a12.84,12.84,0,0,1,.63,1.7H72v1h9.31v-1ZM92.86,144.1v.18c0,.93-.43,2.16-5.09,2.79a4.49,4.49,0,0,1,.72,1c3.17-.49,4.59-1.32,5.18-2.2a8.7,8.7,0,0,0,4.9,2.11,5,5,0,0,1,.75-1.07c-2.35-.19-4.32-.9-5.27-2a3.13,3.13,0,0,0,0-.59v-.23H97a11.33,11.33,0,0,1-.85,1.42l1.06.38a15.94,15.94,0,0,0,1.51-2.6l-.9-.3-.21.05h-6c.12-.32.27-.65.38-1l-1.21-.27a7.63,7.63,0,0,1-2.07,3.42,6.19,6.19,0,0,1,1,.69A9.5,9.5,0,0,0,91,144.1Zm-6.17,9.16h9v1.26h-9Zm0-2.09h9v1.22h-9Zm0-2.09h9v1.23h-9Zm-1.3,6.32H97v-7.22H85.39Zm2.34-12.49h-4.3v1h4.3Zm.45,2.79H83v1.08h5.15Zm.22,9.83a21.12,21.12,0,0,1-5.28,1.72,8.55,8.55,0,0,1,1,1,24.21,24.21,0,0,0,5.49-2.19Zm4.39.7a42.87,42.87,0,0,1,5,2l1.17-.78a49.62,49.62,0,0,0-5.29-1.94ZM105.5,144a34.75,34.75,0,0,0-3-1.91l-.77.92c1,.63,2.3,1.51,3,2Zm-.85,4.68c-.7-.48-2.07-1.24-3-1.78l-.77.94a29.09,29.09,0,0,1,3,1.92Zm-.7,2.88a54.5,54.5,0,0,1-2.74,5.76l1.19.74c.85-1.66,1.86-3.87,2.6-5.76Zm3.56-7.58h9.63v-1.22H106.2v4.91c0,3-.18,7-2.21,9.89a3.77,3.77,0,0,1,1.09.7c2.13-3,2.43-7.45,2.43-10.59Zm1.66,9.26a12.27,12.27,0,0,1-2.14,3.33,10,10,0,0,1,1.08.68,18.51,18.51,0,0,0,2.27-3.69Zm.58-3.62h5.47v1.58h-5.47Zm0-2.54h5.47v1.57h-5.47Zm6.71,5.15V146h-3.92c.23-.46.48-1,.73-1.51l-1.49-.3a17.59,17.59,0,0,1-.52,1.81h-2.72v6.18h3.22v4.68c0,.2-.07.25-.3.27s-1,0-1.86,0a4.7,4.7,0,0,1,.38,1.15,7.11,7.11,0,0,0,2.45-.18c.5-.2.61-.54.61-1.2v-4.7Zm-2.21,1.31a37.72,37.72,0,0,1,2,3.53l1.22-.54c-.45-.86-1.35-2.34-2-3.44Zm11.14-1.4a18.55,18.55,0,0,0-1.28-3.57l-1,.36c.25.53.47,1.12.68,1.71l-2.93.42a33.29,33.29,0,0,0,4.1-5.91l-1.13-.66c-.43.86-.94,1.74-1.44,2.55l-1.89.18a30.21,30.21,0,0,0,2.88-4.87l-1.23-.53a23.17,23.17,0,0,1-2.43,4.54c-.37.54-.7.92-1,1,.13.32.35.95.42,1.22a9.68,9.68,0,0,1,2.52-.41,22.09,22.09,0,0,1-1.5,2c-.54.66-1,1.11-1.33,1.2a9.66,9.66,0,0,1,.42,1.25c.34-.2.88-.33,4.84-1,.09.34.16.66.21.91Zm-5.78,1.24a20.54,20.54,0,0,1-.86,4.14,6.77,6.77,0,0,1,1,.4,23.43,23.43,0,0,0,.9-4.34Zm1.91.13a33.19,33.19,0,0,1,.45,3.81l1-.25a35.54,35.54,0,0,0-.48-3.78Zm3.92,2.57a21.13,21.13,0,0,0-1-3.24l-.93.32a22.48,22.48,0,0,1,1,3.24Zm7,.74c-.4,0-.45-.09-.45-.56v-6.43l1.36-.16A14.45,14.45,0,0,1,134,151l1.19-.58a29.94,29.94,0,0,0-2.52-4.32l-1.1.49c.4.59.81,1.3,1.21,2l-5.29.52a34.37,34.37,0,0,0,2.3-3.71h5.27v-1.26h-4.62c.3-.59.61-1.22.88-1.83l-1.44-.43c-.29.75-.63,1.53-1,2.26H125.6v1.26h2.67a27,27,0,0,1-1.55,2.63c-.49.74-.88,1.23-1.24,1.32a11.37,11.37,0,0,1,.47,1.33,6.59,6.59,0,0,1,1.76-.36c-.11,3.71-.54,5.81-3.37,7a3.21,3.21,0,0,1,.83,1c3.15-1.47,3.69-4,3.84-8.22l1.69-.2v6.3c0,1.33.31,1.73,1.56,1.73h1.55c1.08,0,1.41-.63,1.53-3.05a3.35,3.35,0,0,1-1.17-.52c0,2-.12,2.38-.5,2.38ZM145,143.68v-.9h-4.69a5.69,5.69,0,0,0,.37-.68l-1.26-.34a8.68,8.68,0,0,1-2.53,3.06,7.14,7.14,0,0,1,1.09.73,10.82,10.82,0,0,0,1.72-1.87Zm-2.32,1.44a5.88,5.88,0,0,0-.9-1.4l-1.1.32a6.9,6.9,0,0,1,.87,1.44Zm9.74,6c.25-.6.52-1.5.76-2.29l-.9-.23-.24,0H137.14v.78h14.51c-.13.5-.25,1-.38,1.42Zm-13.46.38v.7H151.2v-.7h-5.52v-.71h4.64v-.68H139.93v.68h4.48v.71Zm3.81,3.63v1.24h-3.33v-1.24Zm-4.44,2.58h1.11v-.51h3.33v.45h1.15v-3.35h-5.59Zm6.85-1.64a7.91,7.91,0,0,1,1.61,1.62l.9-.61a6.71,6.71,0,0,0-1.62-1.55ZM137,153.69H149.6v.92h-5.28v.84h5.28V157c0,.18-.07.25-.31.25s-.9,0-1.72,0a5.4,5.4,0,0,1,.5,1,7,7,0,0,0,2.21-.18c.47-.18.62-.41.62-1v-1.62H153v-.84H150.9v-.92h2.33v-.79H137Zm10.6-10.91a5,5,0,0,0,.52-.81l-1.28-.32a6.94,6.94,0,0,1-2.59,2.54,7.42,7.42,0,0,1,1.12.68h-1v.86h-6.64v.78h6.64v.7h-5.36v.7h12.17v-.7h-5.49v-.7h6.75v-.78h-6.75v-.86h-.27a9.22,9.22,0,0,0,1.38-1.19h2.79l-1,.34a5.66,5.66,0,0,1,1,1.41l1.13-.38a5.79,5.79,0,0,0-1-1.37h3.52v-.9Z"/><path class="a941c6cd-81b1-49e9-9471-995ba7565db5" d="M100,200A100,100,0,1,1,200,100,100.11,100.11,0,0,1,100,200ZM100,1a99,99,0,1,0,99,99A99.11,99.11,0,0,0,100,1Z"/><path class="a427539c-caf2-4b65-99a8-4481aa88bd82" d="M145.33,115.33,122.8,94.62,111.69,120h31.82a2.69,2.69,0,0,0,1.82-4.67Z"/><path class="a427539c-caf2-4b65-99a8-4481aa88bd82" d="M55.63,115.33A2.69,2.69,0,0,0,57.45,120H89.26L78.16,94.62Z"/><path class="a427539c-caf2-4b65-99a8-4481aa88bd82" d="M100.48,74.12,82.35,90.78,95.13,120h10.69l12.79-29.22Z"/><path class="a427539c-caf2-4b65-99a8-4481aa88bd82" d="M57.27,33.58h6.45v6.06a11.64,11.64,0,0,0-5.55,19.57l7,7-1.9,1.91a2.69,2.69,0,1,0,3.8,3.8L87.33,51.6a2.69,2.69,0,1,0-3.8-3.8l-1.91,1.9-7-7a11.57,11.57,0,0,0-5.55-3.09V33.58h62.75v6.06a11.66,11.66,0,0,0-5.55,3.09l-7,7-1.9-1.9a2.69,2.69,0,0,0-3.81,3.8l20.29,20.29a2.69,2.69,0,1,0,3.8-3.8l-1.9-1.91,7-7a11.64,11.64,0,0,0-5.55-19.57V33.58h6.46a2.69,2.69,0,0,0,0-5.38H57.27a2.69,2.69,0,0,0,0,5.38Z"/><path class="a427539c-caf2-4b65-99a8-4481aa88bd82" d="M74.26,72.28l5.81,13.29L96.5,70.46,85.86,60.68Z"/><path class="a427539c-caf2-4b65-99a8-4481aa88bd82" d="M120.89,85.57l5.81-13.29-11.6-11.6-10.65,9.78Z"/></svg>