<?xml version="1.0" encoding="utf-8"?>
<!-- Generator: Adobe Illustrator 24.1.1, SVG Export Plug-In . SVG Version: 6.00 Build 0)  -->
<svg version="1.1" id="圖層_1" xmlns="http://www.w3.org/2000/svg" xmlns:xlink="http://www.w3.org/1999/xlink" x="0px" y="0px"
	 viewBox="0 0 50 50" style="enable-background:new 0 0 50 50;" xml:space="preserve">
<style type="text/css">
	.st0{fill:#00263D;}
</style>
<path class="st0" d="M0,44.2h5.4c3.8,0,6.4-1.6,6.4-4.9c0-2.3-1.4-3.6-3.5-4v-0.1c1.6-0.5,2.5-2,2.5-3.7c0-3-2.4-4.1-5.8-4.1H0V44.2
	z M2.1,34.5V29h2.6c2.6,0,4,0.7,4,2.7c0,1.7-1.2,2.8-4.1,2.8H2.1z M2.1,42.5v-6.4h2.9c2.9,0,4.6,0.9,4.6,3c0,2.3-1.7,3.3-4.6,3.3
	H2.1z M17.8,44.5c1.5,0,2.9-0.8,4.1-1.8H22l0.2,1.5h1.7v-7.7c0-3.1-1.3-5.1-4.3-5.1c-2,0-3.8,0.9-4.9,1.6l0.8,1.4
	c1-0.7,2.3-1.3,3.8-1.3c2,0,2.6,1.5,2.6,3.2c-5.3,0.6-7.7,2-7.7,4.7C14.2,43.2,15.7,44.5,17.8,44.5z M18.4,42.8
	c-1.2,0-2.2-0.6-2.2-2c0-1.6,1.4-2.6,5.6-3.2v3.5C20.6,42.2,19.6,42.8,18.4,42.8z M32.9,44.5c1.5,0,2.9-0.6,4-1.6L36,41.5
	c-0.8,0.7-1.8,1.2-2.9,1.2c-2.3,0-3.9-1.9-3.9-4.8c0-2.9,1.7-4.8,3.9-4.8c1,0,1.8,0.5,2.5,1.1l1.1-1.4c-0.9-0.8-2-1.5-3.7-1.5
	c-3.2,0-6,2.4-6,6.6C27,42.1,29.5,44.5,32.9,44.5z M39.6,44.2h2.1v-3.3l2.3-2.7l3.7,6H50l-4.7-7.5l4.2-5h-2.3l-5.4,6.6h0V25.8h-2.1
	V44.2z"/>
<path class="st0" d="M26.3,17.6h-1.7c-0.5,0-0.9-0.4-0.9-0.9s0.4-0.9,0.9-0.9h1.7c1.3,0,2.4-1.1,2.4-2.4s-1.1-2.3-2.4-2.3h-7.7
	l2.2,2.2c0.4,0.4,0.4,0.9,0,1.3c-0.4,0.4-0.9,0.4-1.3,0l-3.7-3.8c-0.1-0.1-0.2-0.2-0.2-0.3c-0.1-0.1-0.1-0.2-0.1-0.3
	c0-0.1,0-0.2,0.1-0.4c0-0.1,0.1-0.2,0.2-0.3l3.7-3.7c0.4-0.4,0.9-0.4,1.3,0c0.4,0.4,0.4,0.9,0,1.3l-2.2,2.2h7.7
	c2.3,0,4.2,1.8,4.2,4.2S28.6,17.6,26.3,17.6z"/>
</svg>
