<svg width="960" height="101" viewBox="0 0 960 101" fill="none" xmlns="http://www.w3.org/2000/svg">
<path d="M531.441 7.20824V51.1785V73.5241V97.3112C539.774 97.3112 544.121 86.4989 544.121 86.4989V73.1636V24.8685V0C535.426 0 531.441 7.20824 531.441 7.20824Z" fill="white"/>
<path d="M219.532 15.1373V56.5847V77.849V100.195C227.864 100.195 232.211 82.1739 232.211 82.1739V77.1282V31.7162V8.28943C223.879 8.28943 219.532 15.1373 219.532 15.1373Z" fill="white"/>
<path d="M205.766 8.2896C205.766 8.2896 206.853 4.68549 211.2 3.96467C226.777 1.44178 264.815 -1.44153 275.683 14.4166C287.275 31.3559 257.932 51.1786 226.415 48.2953C226.415 48.2953 266.264 36.7621 260.83 22.7061C253.947 6.48754 207.215 7.92918 205.766 8.2896Z" fill="white"/>
<path d="M240.181 47.9348C240.181 47.9348 264.091 90.4635 268.076 90.8239C272.06 91.5447 282.204 87.9405 282.928 84.6968C282.928 84.6968 272.423 80.3719 264.453 64.8742C256.121 49.3764 251.774 41.087 251.774 41.087C251.774 41.087 239.819 45.4119 240.181 47.9348Z" fill="white"/>
<path d="M427.834 15.1373V56.5847V77.849V100.195C436.166 100.195 440.513 82.1739 440.513 82.1739V77.1282V31.7162V8.28943C431.819 8.28943 427.834 15.1373 427.834 15.1373Z" fill="white"/>
<path d="M413.706 8.2896C413.706 8.2896 414.792 4.68549 419.14 3.96467C434.717 1.44178 472.755 -1.44153 483.623 14.4166C495.215 31.3559 465.872 51.1786 434.355 48.2953C434.355 48.2953 474.204 36.7621 468.77 22.7061C461.887 6.48754 415.155 7.92918 413.706 8.2896Z" fill="white"/>
<path d="M448.121 47.9348C448.121 47.9348 472.03 90.4635 476.015 90.8239C480 91.5447 490.143 87.9405 490.868 84.6968C490.868 84.6968 480.362 80.3719 472.392 64.8742C464.06 49.3764 459.713 41.087 459.713 41.087C459.713 41.087 447.758 45.4119 448.121 47.9348Z" fill="white"/>
<path d="M0 10.8124C0 10.8124 37.6755 -8.28934 65.9321 9.73119C97.8113 29.9142 46.3698 60.549 30.0679 46.1326C30.0679 46.1326 53.6151 43.9702 55.7887 30.9954C57.2377 20.5435 53.2528 3.96458 0 10.8124Z" fill="white"/>
<path d="M19.1999 25.2288L18.8376 25.5893V72.0824V94.4279C18.8376 94.0675 18.8376 93.7071 18.8376 93.3467V100.194C26.4452 100.194 30.7924 80.0114 31.1546 76.7677V72.0824V25.2288V14.0561C24.2716 14.4165 20.2867 23.0664 19.1999 25.2288Z" fill="white"/>
<path d="M340.528 14.4165V50.0973V74.9658V96.5905C348.86 96.5905 353.208 69.5596 353.208 69.5596V28.1122V11.1728C344.513 11.1728 340.528 14.4165 340.528 14.4165Z" fill="white"/>
<path d="M311.185 17.2997C312.272 18.7414 317.706 17.6602 319.155 17.6602C328.574 17.6602 337.992 17.6602 347.411 17.6602C356.106 17.6602 364.8 18.7414 373.494 15.8581C379.653 13.6957 381.826 9.73118 385.811 5.04586C382.189 3.60422 378.566 4.32505 374.581 4.32505C370.234 4.32505 365.887 4.32505 361.177 4.32505C352.121 4.32505 343.064 3.9646 334.37 3.60419C326.4 3.24378 318.792 3.60419 314.083 10.8124C312.996 12.254 310.098 15.4977 311.185 17.2997Z" fill="white"/>
<path d="M914.717 14.4165V50.0973V74.9658V96.5905C923.049 96.5905 927.396 69.5596 927.396 69.5596V28.1122V11.1728C918.702 11.1728 914.717 14.4165 914.717 14.4165Z" fill="white"/>
<path d="M885.374 17.2997C886.46 18.7414 891.894 17.6602 893.343 17.6602C902.762 17.6602 912.181 17.6602 921.6 17.6602C930.294 17.6602 938.989 18.7414 947.683 15.8581C953.841 13.6957 956.015 9.73118 960 5.04586C956.377 3.60422 952.755 4.32505 948.77 4.32505C944.423 4.32505 940.075 4.32505 935.366 4.32505C926.309 4.32505 917.253 3.9646 908.558 3.60419C900.589 3.24378 892.981 3.60419 888.272 10.8124C887.185 12.254 884.287 15.4977 885.374 17.2997C885.011 17.2997 885.374 17.2997 885.374 17.2997Z" fill="white"/>
<path d="M651.713 33.8788C651.351 29.9143 650.626 25.9497 649.177 21.9852C645.555 12.9749 636.136 7.5687 626.717 5.40623C619.109 3.60417 611.14 3.96461 603.532 3.96461C599.547 3.96461 595.2 3.96463 591.94 6.1271C590.128 7.20833 588.317 9.01035 586.506 9.01035C595.924 8.64994 606.43 9.01039 615.487 11.5333C622.732 13.6957 629.253 17.6603 633.6 23.7872C639.758 32.4371 639.396 44.3307 638.309 54.0618C637.585 62.3513 635.411 70.6408 628.891 76.7678C624.906 80.7323 619.834 83.2552 614.4 83.976C612.951 84.3364 602.083 86.4989 602.083 83.976C602.083 77.849 602.083 71.3616 602.083 65.2346V60.9097V36.4017V25.9497V16.579C593.751 16.579 589.766 26.3101 589.766 26.3101V30.9955V36.4017V60.9097V65.2346V77.4886C589.766 80.3719 589.041 83.2552 591.577 85.7781C597.736 92.2655 606.792 94.428 615.487 93.3467C623.819 92.6259 633.238 89.7426 639.396 83.976C645.192 78.5698 648.453 71.722 650.264 64.1534C652.438 54.0618 652.438 43.6099 651.713 33.8788Z" fill="white"/>
<path d="M792.996 16.9393V51.8993V71.3615V94.0675C800.966 94.0675 804.589 75.6864 804.589 75.6864V71.0011V28.8329V10.8123C796.619 10.8123 792.996 16.9393 792.996 16.9393Z" fill="white"/>
<path d="M798.068 22.3455L817.268 51.5389L828.136 67.7574L840.453 86.4988C846.973 82.1739 840.09 64.5137 840.09 64.5137L837.555 60.5492L814.37 25.2288L804.589 10.0915C798.068 15.1373 798.068 22.3455 798.068 22.3455Z" fill="white"/>
<path d="M839.366 11.1727V51.8993V71.3615V90.4633C847.336 90.4633 850.958 82.5343 850.958 82.5343V70.6407V28.4725V6.84781C842.989 7.20822 839.366 11.1727 839.366 11.1727Z" fill="white"/>
<path d="M805.313 11.8935C805.313 11.8935 804.589 8.28936 798.792 7.20812C792.996 6.4873 791.185 9.3706 786.113 14.4164C786.113 14.4164 789.736 11.1727 792.996 16.9393C796.257 22.7059 798.068 27.3912 801.691 25.2287C805.313 22.7059 805.313 11.8935 805.313 11.8935Z" fill="white"/>
<path d="M109.043 8.64983C108.68 9.01025 108.68 9.37067 108.68 9.73108C109.767 12.9748 108.68 16.5789 109.405 19.8226C109.405 20.183 109.405 20.5434 109.767 20.9038C110.854 21.9851 113.39 20.9038 114.839 20.9038C128.243 20.9038 140.197 27.0308 152.877 30.635C155.413 31.3558 157.948 31.7162 160.484 30.635C163.745 29.1933 165.918 25.9496 167.73 22.7059C168.454 21.6247 173.526 12.6144 175.337 14.056C171.352 10.4519 165.556 10.8123 160.484 10.4519C147.08 9.37066 134.039 8.64981 120.635 8.2894C117.013 8.2894 113.39 8.2894 109.767 8.2894C109.767 8.2894 109.405 8.28942 109.043 8.64983Z" fill="white"/>
<path d="M106.868 71.3616C106.506 71.722 106.506 71.722 106.506 72.0824C106.143 72.8032 106.506 73.5241 106.506 74.6053C107.955 82.5343 109.404 89.3821 118.46 91.1842C129.328 93.3467 142.37 92.2654 153.238 89.3821C159.034 87.9405 164.468 85.4176 168.453 81.0927C169.54 80.0114 177.147 70.6407 171.713 71.722C160.845 73.8845 149.977 74.9657 139.109 74.6053C130.053 74.6053 120.634 74.2449 111.94 71.722C110.128 71.3616 108.317 70.6407 106.868 71.3616Z" fill="white"/>
<path d="M112.302 40.3661C112.302 40.3661 150.702 38.564 156.498 43.2494C162.294 48.2951 162.657 59.1076 162.657 59.1076C162.657 59.1076 137.298 51.8993 111.94 51.1785C111.577 51.5389 110.853 46.4931 112.302 40.3661Z" fill="white"/>
<path d="M686.854 8.64983C686.492 9.01025 686.492 9.37067 686.492 9.73108C687.578 12.9748 686.492 16.5789 687.216 19.8226C687.216 20.183 687.216 20.5434 687.578 20.9038C688.665 21.9851 691.201 20.9038 692.65 20.9038C706.054 20.9038 718.009 27.0308 730.688 30.635C733.224 31.3558 735.76 31.7162 738.295 30.635C741.556 29.1933 743.729 25.9496 745.541 22.7059C746.265 21.6247 751.337 12.6144 753.148 14.056C749.163 10.4519 743.367 10.8123 738.295 10.4519C724.892 9.37066 711.85 8.64981 698.446 8.2894C694.824 8.2894 691.201 8.2894 687.578 8.2894C687.578 8.2894 687.216 8.28942 686.854 8.64983Z" fill="white"/>
<path d="M684.679 71.3616C684.317 71.722 684.317 71.722 684.317 72.0824C683.955 72.8032 684.317 73.5241 684.317 74.6053C685.766 82.5343 687.215 89.3821 696.272 91.1842C707.14 93.3467 720.181 92.2654 731.049 89.3821C736.845 87.9405 742.279 85.4176 746.264 81.0927C747.351 80.0114 754.958 70.6407 749.524 71.722C738.656 73.8845 727.789 74.9657 716.921 74.6053C707.864 74.6053 698.445 74.2449 689.751 71.722C687.94 71.3616 685.766 70.6407 684.679 71.3616Z" fill="white"/>
<path d="M690.113 40.3661C690.113 40.3661 728.513 38.564 734.309 43.2494C740.106 48.2951 740.468 59.1076 740.468 59.1076C740.468 59.1076 715.109 51.8993 689.751 51.1785C689.389 51.5389 688.664 46.4931 690.113 40.3661Z" fill="white"/>
</svg>
