<svg width="160" height="30" viewBox="0 0 160 30" fill="none" xmlns="http://www.w3.org/2000/svg">
<path d="M97.7582 6.88314V13.0909V16.2598V19.6104C98.953 19.6104 99.5245 18.052 99.5245 18.052V16.1559V9.35067V5.84418C98.3297 5.84418 97.7582 6.88314 97.7582 6.88314Z" fill="white"/>
<path d="M59.9338 15.091C59.2329 13.7403 58.7137 12.8053 58.4281 12.2598C61.0242 11.4027 62.6337 9.53253 61.5174 7.89617C59.9857 5.6624 54.6379 6.05201 52.4572 6.38967C51.8342 6.49357 51.7043 7.01305 51.7043 7.01305C51.8082 6.98707 53.236 6.93513 54.8456 7.11694C54.0668 7.35071 53.6773 8.00006 53.6773 8.00006V13.8702V16.8572V20.026C54.8715 20.026 55.4427 17.5066 55.4427 17.5066V16.7793V12.7273C55.8321 12.7273 56.1955 12.7014 56.559 12.6494C56.7666 13.013 59.9079 18.6234 60.479 18.7273C61.0501 18.8312 62.452 18.3118 62.5558 17.8702C62.5558 17.8702 61.102 17.2728 59.9338 15.091ZM55.4427 12.4156V10.3117V7.19487C57.182 7.42863 58.9733 7.97409 59.4146 9.09097C59.9857 10.5715 57.0003 11.8442 55.4427 12.4156Z" fill="white"/>
<path d="M87.6077 15.091C86.9068 13.7403 86.3876 12.8053 86.102 12.2598C88.6981 11.4027 90.3076 9.53253 89.1913 7.89617C87.6596 5.6624 82.3118 6.05201 80.1311 6.38967C79.508 6.49357 79.3782 7.01305 79.3782 7.01305C79.4821 6.98707 80.9099 6.93513 82.5195 7.11694C81.7406 7.35071 81.3512 8.00006 81.3512 8.00006V13.8702V16.8572V20.026C82.5454 20.026 83.1166 17.5066 83.1166 17.5066V16.7793V12.7273C83.506 12.7273 83.8694 12.7014 84.2329 12.6494C84.4405 13.013 87.5818 18.6234 88.1529 18.7273C88.724 18.8312 90.1259 18.3118 90.2297 17.8702C90.2297 17.8702 88.7759 17.2728 87.6077 15.091ZM83.1166 12.4156V10.3117V7.19487C84.8559 7.42863 86.6472 7.97409 87.0885 9.09097C87.6596 10.5715 84.6742 11.8442 83.1166 12.4156Z" fill="white"/>
<path d="M33.3762 7.19488C29.4042 4.6754 24.1083 7.35073 24.1083 7.35073C31.5849 6.41566 32.182 8.75332 31.9483 10.2079C31.6887 11.7144 29.4042 12.1819 28.5994 12.3118V9.42865V7.87021C27.5351 7.87021 26.9639 9.14293 26.8341 9.42865H26.8082V9.50657V16.078V19.2209C26.8082 19.1689 26.8082 19.117 26.8341 19.065V20.052C27.9245 20.052 28.4956 17.1949 28.5994 16.7533C28.6254 16.7533 28.6254 16.7273 28.6254 16.7273V16.078V12.5455C31.1695 14.052 37.7116 9.92215 33.3762 7.19488Z" fill="white"/>
<path d="M74.6534 6.49357C74.0304 6.49357 73.4073 6.49357 72.7843 6.49357C71.5122 6.49357 70.2661 6.44162 68.994 6.38967C67.8777 6.33772 66.8133 6.38967 66.1384 7.37668C66.0086 7.5585 65.6192 8.00006 65.749 8.23383C65.749 8.23383 65.749 8.23383 65.749 8.2598C65.8788 8.46759 66.6576 8.33772 66.8653 8.33772C67.8777 8.33772 68.8642 8.33772 69.8767 8.33772V12.9092V16.4416V19.4806C71.0709 19.4806 71.642 15.6364 71.642 15.6364V9.81824V8.38967C72.6025 8.41564 73.5631 8.44162 74.4977 8.10396C75.3544 7.79227 75.6659 7.24681 76.211 6.57149C75.7178 6.3637 75.1986 6.49357 74.6534 6.49357Z" fill="white"/>
<path d="M157.649 6.49357C157.026 6.49357 156.403 6.49357 155.78 6.49357C154.508 6.49357 153.262 6.44162 151.99 6.38967C150.873 6.33772 149.809 6.38967 149.134 7.37668C149.004 7.5585 148.615 8.00006 148.745 8.23383C148.745 8.23383 148.745 8.23383 148.745 8.2598C148.874 8.46759 149.653 8.33772 149.861 8.33772C150.873 8.33772 151.86 8.33772 152.872 8.33772V12.9092V16.4416V19.4806C154.067 19.4806 154.638 15.6364 154.638 15.6364V9.81824V8.38967C155.598 8.41564 156.559 8.44162 157.493 8.10396C158.35 7.79227 158.662 7.24681 159.207 6.57149C158.714 6.3637 158.194 6.49357 157.649 6.49357Z" fill="white"/>
<path d="M116.683 8.96111C116.164 7.68838 114.84 6.90916 113.542 6.62345C112.478 6.38968 111.362 6.41565 110.271 6.41565C109.7 6.41565 109.103 6.44163 108.636 6.72734C108.376 6.88319 108.142 7.14293 107.857 7.14293C109.207 7.11695 110.635 7.11695 111.959 7.50656C112.945 7.79228 113.88 8.36371 114.503 9.22085C115.359 10.4416 115.308 12.104 115.152 13.5325C115.022 14.7273 114.736 15.8702 113.854 16.7273C113.283 17.2728 112.556 17.6105 111.803 17.7663C111.621 17.7923 110.089 18.104 110.089 17.7923C110.089 16.9092 110.089 16.0001 110.089 15.117V14.5196V11.0131V9.55851V8.18189C108.921 8.18189 108.376 9.55851 108.376 9.55851V10.2338V11.0131V14.4676V15.065V16.7793C108.376 17.1949 108.298 17.6105 108.61 17.9481C109.492 18.8572 110.764 19.1429 111.985 19.039C113.127 18.9351 114.503 18.4936 115.359 17.6884C116.164 16.9351 116.657 15.9221 116.891 14.8572C117.203 13.4806 117.229 12.0001 117.099 10.5975C116.995 10.052 116.891 9.48059 116.683 8.96111Z" fill="white"/>
<path d="M143.085 13.2209V14.8832L142.852 14.5196L139.581 9.50658L138.283 7.50658C138.283 7.50658 138.179 6.9871 137.374 6.85723C136.543 6.72736 136.284 7.14295 135.583 7.89619C135.583 7.89619 136.102 7.42866 136.543 8.23386V13.1949V15.9741V19.1689C137.634 19.1689 138.179 16.5455 138.179 16.5455V15.8962V10.3637L139.996 13.1429L141.528 15.4546L143.085 17.8442V18.7014C144.176 18.7014 144.721 17.5585 144.721 17.5585V15.8962V9.92217V6.85723C143.63 6.85723 143.085 7.42866 143.085 7.42866V13.2209Z" fill="white"/>
<path d="M40.4896 7.03897C39.9964 7.03897 39.4772 7.013 38.9839 7.013C38.932 7.013 38.8801 7.013 38.8541 7.03897C38.8022 7.06495 38.8022 7.14287 38.8281 7.22079C38.958 7.68832 38.8281 8.18183 38.906 8.64936C38.906 8.70131 38.932 8.77923 38.9839 8.83118C39.1397 8.98703 39.5031 8.83118 39.7108 8.83118C41.58 8.83118 43.2674 9.68832 45.0587 10.2078C45.4221 10.3117 45.7856 10.3637 46.123 10.2338C46.5903 10.052 46.8759 9.58443 47.1615 9.14287C47.2653 8.98703 47.9922 7.68833 48.2259 7.89612C47.6807 7.40261 46.8499 7.45456 46.149 7.37664C44.2279 7.19482 42.3588 7.06495 40.4896 7.03897Z" fill="white"/>
<path d="M47.6285 16C46.0969 16.2857 44.5652 16.4416 43.0335 16.4156C41.7615 16.3896 40.4115 16.3637 39.1914 15.974C39.0097 15.9221 38.6981 15.7922 38.5424 15.9481C38.5164 15.974 38.4904 16.026 38.4645 16.0779C38.4385 16.1818 38.4645 16.3117 38.4645 16.4156C38.6722 17.5325 38.8799 18.5195 40.126 18.7533C41.6576 19.039 43.5268 18.9091 45.0325 18.4935C45.8373 18.2857 46.5901 17.8961 47.1872 17.3247C47.317 17.1429 48.4074 15.8442 47.6285 16Z" fill="white"/>
<path d="M46.3568 14.2338C46.3568 14.2338 46.3309 12.6754 45.5002 12C44.6694 11.2987 39.2956 11.5845 39.2956 11.5845C39.1139 12.4416 39.2177 13.1689 39.2177 13.1689C42.7743 13.2208 46.3568 14.2338 46.3568 14.2338Z" fill="white"/>
<path d="M123.511 7.03897C123.018 7.03897 122.499 7.013 122.006 7.013C121.954 7.013 121.902 7.013 121.876 7.03897C121.824 7.06495 121.824 7.14287 121.85 7.22079C121.98 7.68832 121.85 8.18183 121.928 8.64936C121.928 8.70131 121.954 8.77923 122.006 8.83118C122.161 8.98703 122.525 8.83118 122.732 8.83118C124.602 8.83118 126.289 9.68832 128.08 10.2078C128.444 10.3117 128.807 10.3637 129.145 10.2338C129.612 10.052 129.898 9.58443 130.183 9.14287C130.287 8.98703 131.014 7.68833 131.247 7.89612C130.702 7.40261 129.872 7.45456 129.171 7.37664C127.25 7.19482 125.38 7.06495 123.511 7.03897Z" fill="white"/>
<path d="M130.65 16C129.119 16.2857 127.587 16.4416 126.055 16.4156C124.783 16.3896 123.433 16.3637 122.213 15.974C122.031 15.9221 121.72 15.7922 121.564 15.9481C121.538 15.974 121.512 16.026 121.486 16.0779C121.46 16.1818 121.486 16.3117 121.486 16.4156C121.694 17.5325 121.902 18.5195 123.148 18.7533C124.679 19.039 126.548 18.9091 128.054 18.4935C128.859 18.2857 129.612 17.8961 130.209 17.3247C130.339 17.1429 131.429 15.8442 130.65 16Z" fill="white"/>
<path d="M129.353 14.2338C129.353 14.2338 129.327 12.6754 128.496 12C127.665 11.2987 122.291 11.5845 122.291 11.5845C122.11 12.4416 122.213 13.1689 122.213 13.1689C125.796 13.2208 129.353 14.2338 129.353 14.2338Z" fill="white"/>
<path d="M5.00211 17.3766C5.00211 18.7013 4.87231 19.9481 4.66462 21.0909C4.63866 21.2727 4.58674 21.4286 4.56078 21.5844C4.89827 21.4805 5.20979 21.3766 5.54728 21.2987C5.67708 21.2727 5.78093 21.2468 5.91073 21.2208C6.63762 21.0649 7.41644 20.9351 8.19525 20.8831C8.63658 20.8571 9.10387 20.8312 9.5452 20.8312C10.0125 20.8312 10.4538 20.8571 10.8951 20.8831C11.674 20.9351 12.4528 21.0649 13.1797 21.2208C13.3095 21.2468 13.4133 21.2727 13.5431 21.2987C13.8806 21.3766 14.2181 21.4805 14.5296 21.5844C14.5037 21.4286 14.4517 21.2468 14.4258 21.0909C14.2181 19.9481 14.0883 18.7013 14.0883 17.3766C14.0883 12.1558 15.9834 7.8961 18.2939 7.8961C15.2046 7.8961 12.6864 12.1299 12.6864 17.3766C12.6864 18.9351 12.2191 20.2078 11.674 20.2078C11.2326 20.2078 10.8692 19.4286 10.7134 18.3636L10.6615 17.3766L9.57116 0L8.45486 17.3507L8.37698 18.4156C8.22121 19.4805 7.85777 20.2338 7.41644 20.2338C6.84531 20.2338 6.40398 18.961 6.40398 17.4026C6.40398 12.1818 3.88581 7.92208 0.796509 7.92208C3.10699 7.92208 5.00211 12.1558 5.00211 17.3766Z" fill="white"/>
<path d="M7.36377 22.7013C8.68776 24.3117 9.57041 26.987 9.57041 30C9.57041 26.987 10.4531 24.3117 11.7771 22.7013C11.0502 22.5974 10.3233 22.5714 9.57041 22.5714C8.81756 22.5714 8.0647 22.6234 7.36377 22.7013Z" fill="white"/>
<path d="M15.1259 23.5065C15.1 23.4286 15.0481 23.3247 15.0221 23.2468C14.8663 22.8052 14.7365 22.3377 14.6067 21.8442C14.1654 21.7143 13.7241 21.5844 13.2568 21.4805C13.2568 21.4805 13.2568 21.4805 13.2568 21.4546H13.2308C12.0626 21.1948 10.8425 21.0649 9.54443 21.0649C8.27236 21.0649 7.02626 21.1948 5.85803 21.4546H5.83207C5.83207 21.4546 5.83207 21.4546 5.83207 21.4805C5.36478 21.5844 4.92346 21.7143 4.48213 21.8442C4.35233 22.3377 4.22252 22.8052 4.06676 23.2468C4.0408 23.3247 4.01484 23.4286 3.96292 23.5065C3.1841 25.5325 2.04184 26.8312 0.769775 26.8312C2.58701 26.8312 4.19656 25.3766 5.23498 23.0909C5.2869 23.013 5.31286 22.9091 5.33882 22.8312C5.90996 22.6753 6.53301 22.5714 7.15606 22.4675C7.93488 22.3636 8.71369 22.3117 9.54443 22.3117C10.3492 22.3117 11.154 22.3636 11.9328 22.4675C12.5558 22.5455 13.1529 22.6753 13.75 22.8312C13.776 22.9091 13.8279 23.013 13.8539 23.0909C14.8663 25.3507 16.5018 26.8312 18.3191 26.8312C17.047 26.8572 15.9047 25.5584 15.1259 23.5065Z" fill="white"/>
<path d="M26.6005 28.3377H25.666V23.7922H27.7428C28.6255 23.7922 29.1447 24.3637 29.1447 25.2468C29.1447 25.6624 28.911 26.7013 27.6909 26.7013H26.6005V28.3377ZM27.4832 25.8961C28.1841 25.8961 28.1841 25.4026 28.1841 25.1948C28.1841 24.7533 27.9505 24.5715 27.3534 24.5715H26.6005V25.8961H27.4832Z" fill="white"/>
<path d="M32.9608 27.3507C32.7272 28.1559 32.0522 28.4156 31.4811 28.4156C30.5465 28.4156 29.8196 27.9481 29.8196 26.5715C29.8196 26.1559 29.9494 24.8832 31.4291 24.8832C32.1041 24.8832 33.0127 25.1949 33.0127 26.7273V26.8832H30.7022C30.7282 27.1429 30.7801 27.7143 31.4811 27.7143C31.7147 27.7143 31.9743 27.5845 32.0522 27.3507H32.9608ZM32.1041 26.3118C32.0522 25.7663 31.7147 25.6105 31.4291 25.6105C31.0138 25.6105 30.7801 25.8702 30.7282 26.3118H32.1041Z" fill="white"/>
<path d="M34.0511 24.9611H34.9078V25.5325C35.0896 25.1948 35.2973 24.8572 35.8165 24.8572C35.8684 24.8572 35.9203 24.8572 35.9982 24.8572V25.7663C35.9203 25.7663 35.8165 25.7663 35.7386 25.7663C35.0376 25.7663 34.9338 26.2078 34.9338 26.5715V28.3117H34.0511V24.9611Z" fill="white"/>
<path d="M38.1017 24.9611H38.6471V25.5844H38.1017V27.4026C38.1017 27.6104 38.1017 27.6624 38.4653 27.6624C38.5173 27.6624 38.5952 27.6624 38.6471 27.6624V28.3377C38.5173 28.3377 38.3614 28.3377 38.2316 28.3377H38.1277C37.3744 28.3377 37.2186 28.052 37.2186 27.6104V25.5585H36.751V24.9351H37.2186V24.026H38.1017V24.9611Z" fill="white"/>
<path d="M39.6846 24.9611H40.5413V25.5325C40.723 25.1948 40.9307 24.8572 41.4499 24.8572C41.5018 24.8572 41.5537 24.8572 41.6316 24.8572V25.7663C41.5537 25.7663 41.4499 25.7663 41.372 25.7663C40.6711 25.7663 40.5672 26.2078 40.5672 26.5715V28.3117H39.6846V24.9611Z" fill="white"/>
<path d="M43.5272 24.5715H42.6441V23.7403H43.5272V24.5715ZM43.5272 24.9611V28.3117H42.6441V24.9611H43.5272Z" fill="white"/>
<path d="M47.9141 28.3377H47.0574V27.9221C46.8497 28.3117 46.4603 28.4416 46.0968 28.4416C45.1103 28.4416 44.6949 27.5585 44.6949 26.6234C44.6949 25.4546 45.344 24.8831 46.0968 24.8831C46.6679 24.8831 46.9276 25.1948 47.0574 25.4026V23.7922H47.94V28.3377H47.9141ZM46.3045 27.6883C46.8756 27.6883 47.0833 27.2208 47.0833 26.7273C47.0833 26.1818 46.9276 25.6364 46.3305 25.6364C45.7593 25.6364 45.5776 26.1299 45.5776 26.6754C45.5776 27.065 45.7334 27.6883 46.3045 27.6883Z" fill="white"/>
<path d="M52.0677 27.3507C51.8341 28.1559 51.1591 28.4156 50.588 28.4156C49.6534 28.4156 48.9265 27.9481 48.9265 26.5715C48.9265 26.1559 49.0563 24.8832 50.5361 24.8832C51.211 24.8832 52.1197 25.1949 52.1197 26.7273V26.8832H49.8092C49.8351 27.1429 49.8871 27.7143 50.588 27.7143C50.8216 27.7143 51.0812 27.5845 51.1591 27.3507H52.0677ZM51.211 26.3118C51.1591 25.7663 50.8216 25.6105 50.5361 25.6105C50.1207 25.6105 49.8871 25.8702 49.8351 26.3118H51.211Z" fill="white"/>
<path d="M56.2215 28.3377H55.3388V26.2858C55.3388 26.052 55.3388 25.6105 54.7677 25.6105C54.3783 25.6105 54.0667 25.8702 54.0667 26.3897V28.3117H53.1841V24.9611H54.0408V25.4546C54.1706 25.2468 54.4042 24.8832 55.0532 24.8832C55.7023 24.8832 56.2215 25.2728 56.2215 26.0001V28.3377Z" fill="white"/>
<path d="M58.5067 24.9611H59.0521V25.5844H58.5067V27.4026C58.5067 27.6104 58.5067 27.6624 58.8703 27.6624C58.9222 27.6624 59.0002 27.6624 59.0521 27.6624V28.3377C58.9222 28.3377 58.7664 28.3377 58.6365 28.3377H58.5326C57.7794 28.3377 57.6235 28.052 57.6235 27.6104V25.5585H57.156V24.9351H57.6235V24.026H58.5067V24.9611Z" fill="white"/>
<path d="M63.2572 28.3377H62.2962V23.7922H63.2313V28.3377H63.2572Z" fill="white"/>
<path d="M67.5662 28.3377H66.6835V26.2858C66.6835 26.052 66.6835 25.6105 66.1124 25.6105C65.723 25.6105 65.4115 25.8702 65.4115 26.3897V28.3117H64.5288V24.9611H65.3855V25.4546C65.5153 25.2468 65.749 24.8832 66.398 24.8832C67.047 24.8832 67.5662 25.2728 67.5662 26.0001V28.3377Z" fill="white"/>
<path d="M69.8774 24.9611H70.4228V25.5844H69.8774V27.4026C69.8774 27.6104 69.8774 27.6624 70.241 27.6624C70.2929 27.6624 70.3709 27.6624 70.4228 27.6624V28.3377C70.2929 28.3377 70.1371 28.3377 70.0072 28.3377H69.9033C69.1501 28.3377 68.9942 28.052 68.9942 27.6104V25.5585H68.5267V24.9351H68.9942V24.026H69.8774V24.9611Z" fill="white"/>
<path d="M74.3419 27.3507C74.1083 28.1559 73.4333 28.4156 72.8622 28.4156C71.9276 28.4156 71.2007 27.9481 71.2007 26.5715C71.2007 26.1559 71.3305 24.8832 72.8102 24.8832C73.4852 24.8832 74.3938 25.1949 74.3938 26.7273V26.8832H72.0833C72.1093 27.1429 72.1612 27.7143 72.8622 27.7143C73.0958 27.7143 73.3554 27.5845 73.4333 27.3507H74.3419ZM73.4593 26.3118C73.4073 25.7663 73.0698 25.6105 72.7843 25.6105C72.3689 25.6105 72.1353 25.8702 72.0833 26.3118H73.4593Z" fill="white"/>
<path d="M78.5215 24.9611V28.1559C78.5215 28.7273 78.4695 29.7143 76.834 29.7143C76.1331 29.7143 75.4062 29.4286 75.3802 28.7013H76.3408C76.3667 28.8832 76.4446 29.039 76.9638 29.039C77.4311 29.039 77.6648 28.8052 77.6648 28.2598V27.8442C77.509 28.1039 77.3013 28.3377 76.7562 28.3377C75.9514 28.3377 75.3024 27.7663 75.3024 26.5974C75.3024 25.4286 75.9514 24.8572 76.7042 24.8572C77.3273 24.8572 77.5869 25.2208 77.6907 25.4546V24.9611H78.5215ZM76.886 27.6104C77.4831 27.6104 77.6388 27.0909 77.6388 26.6494C77.6388 26.1039 77.3792 25.6624 76.886 25.6624C76.5485 25.6624 76.185 25.8961 76.185 26.6754C76.185 27.0909 76.3668 27.6104 76.886 27.6104Z" fill="white"/>
<path d="M79.7676 24.9611H80.6243V25.5325C80.806 25.1948 81.0137 24.8572 81.5329 24.8572C81.5848 24.8572 81.6368 24.8572 81.7146 24.8572V25.7663C81.6368 25.7663 81.5329 25.7663 81.455 25.7663C80.7541 25.7663 80.6503 26.2078 80.6503 26.5715V28.3117H79.7676V24.9611Z" fill="white"/>
<path d="M85.427 27.6624C85.427 28.052 85.5049 28.1559 85.6347 28.1819V28.3117H84.6742C84.6222 28.1559 84.6222 28.104 84.5963 27.9221C84.3886 28.1299 84.103 28.4156 83.5059 28.4156C83.0127 28.4156 82.4935 28.1299 82.4935 27.4286C82.4935 26.7793 82.9088 26.4416 83.48 26.3637L84.2848 26.2338C84.4146 26.2079 84.5963 26.1559 84.5963 25.9741C84.5963 25.6105 84.2328 25.5845 84.0251 25.5845C83.5838 25.5845 83.5059 25.8442 83.48 26.052H82.6233C82.7271 25.013 83.4281 24.8832 84.129 24.8832C84.5963 24.8832 85.4789 25.039 85.4789 25.8442V27.6624H85.427ZM84.5444 26.7014C84.4665 26.7793 84.3107 26.8312 83.9473 26.8832C83.6098 26.9351 83.3502 27.013 83.3502 27.3767C83.3502 27.6884 83.5838 27.7923 83.7655 27.7923C84.1549 27.7923 84.5444 27.5325 84.5444 27.1169V26.7014Z" fill="white"/>
<path d="M87.6863 24.9611H88.2317V25.5844H87.6863V27.4026C87.6863 27.6104 87.6863 27.6624 88.0499 27.6624C88.1019 27.6624 88.1798 27.6624 88.2317 27.6624V28.3377C88.1019 28.3377 87.946 28.3377 87.8161 28.3377H87.7123C86.959 28.3377 86.8032 28.052 86.8032 27.6104V25.5585H86.3356V24.9351H86.8032V24.026H87.6863V24.9611Z" fill="white"/>
<path d="M92.1507 27.3507C91.9171 28.1559 91.2421 28.4156 90.671 28.4156C89.7364 28.4156 89.0095 27.9481 89.0095 26.5715C89.0095 26.1559 89.1393 24.8832 90.6191 24.8832C91.294 24.8832 92.2027 25.1949 92.2027 26.7273V26.8832H89.8922C89.9181 27.1429 89.9701 27.7143 90.671 27.7143C90.9046 27.7143 91.1642 27.5845 91.2421 27.3507H92.1507ZM91.2681 26.3118C91.2162 25.7663 90.8787 25.6105 90.5931 25.6105C90.1777 25.6105 89.9441 25.8702 89.8922 26.3118H91.2681Z" fill="white"/>
<path d="M96.3045 28.3377H95.4478V27.9221C95.2401 28.3117 94.8507 28.4416 94.4873 28.4416C93.5008 28.4416 93.0854 27.5585 93.0854 26.6234C93.0854 25.4546 93.7344 24.8831 94.4873 24.8831C95.0584 24.8831 95.318 25.1948 95.4478 25.4026V23.7922H96.3305V28.3377H96.3045ZM94.6949 27.6883C95.2661 27.6883 95.4737 27.2208 95.4737 26.7273C95.4737 26.1818 95.318 25.6364 94.7209 25.6364C94.1498 25.6364 93.968 26.1299 93.968 26.6754C93.968 27.065 94.1238 27.6883 94.6949 27.6883Z" fill="white"/>
<path d="M104.222 28.3377H103.34V24.5455L102.483 28.3377H101.548L100.718 24.5455V28.3377H99.8351V23.7922H101.211L102.042 27.3767L102.847 23.7922H104.222V28.3377Z" fill="white"/>
<path d="M108.272 27.6624C108.272 28.052 108.35 28.1559 108.48 28.1819V28.3117H107.519C107.467 28.1559 107.467 28.104 107.442 27.9221C107.234 28.1299 106.948 28.4156 106.351 28.4156C105.858 28.4156 105.339 28.1299 105.339 27.4286C105.339 26.7793 105.754 26.4416 106.325 26.3637L107.13 26.2338C107.26 26.2079 107.442 26.1559 107.442 25.9741C107.442 25.6105 107.078 25.5845 106.87 25.5845C106.429 25.5845 106.351 25.8442 106.325 26.052H105.469C105.572 25.013 106.273 24.8832 106.974 24.8832C107.442 24.8832 108.324 25.039 108.324 25.8442V27.6624H108.272ZM107.39 26.7014C107.312 26.7793 107.156 26.8312 106.793 26.8832C106.455 26.9351 106.195 27.013 106.195 27.3767C106.195 27.6884 106.429 27.7923 106.611 27.7923C107 27.7923 107.39 27.5325 107.39 27.1169V26.7014Z" fill="white"/>
<path d="M109.518 24.9611H110.375V25.5325C110.557 25.1948 110.764 24.8572 111.284 24.8572C111.336 24.8572 111.388 24.8572 111.465 24.8572V25.7663C111.388 25.7663 111.284 25.7663 111.206 25.7663C110.505 25.7663 110.401 26.2078 110.401 26.5715V28.3117H109.518V24.9611Z" fill="white"/>
<path d="M113.361 28.3377H112.478V23.7922H113.361V26.2338L114.477 24.9611H115.567L114.373 26.2598L115.593 28.3117H114.529L113.724 26.8831L113.361 27.2728V28.3377Z" fill="white"/>
<path d="M119.331 27.3507C119.098 28.1559 118.423 28.4156 117.852 28.4156C116.917 28.4156 116.19 27.9481 116.19 26.5715C116.19 26.1559 116.32 24.8832 117.8 24.8832C118.475 24.8832 119.383 25.1949 119.383 26.7273V26.8832H117.073C117.099 27.1429 117.151 27.7143 117.852 27.7143C118.085 27.7143 118.345 27.5845 118.423 27.3507H119.331ZM118.449 26.3118C118.397 25.7663 118.059 25.6105 117.774 25.6105C117.358 25.6105 117.125 25.8702 117.073 26.3118H118.449Z" fill="white"/>
<path d="M121.409 24.9611H121.954V25.5844H121.409V27.4026C121.409 27.6104 121.409 27.6624 121.773 27.6624C121.825 27.6624 121.903 27.6624 121.954 27.6624V28.3377C121.825 28.3377 121.669 28.3377 121.539 28.3377H121.435C120.682 28.3377 120.526 28.052 120.526 27.6104V25.5585H120.058V24.9351H120.526V24.026H121.409V24.9611Z" fill="white"/>
<path d="M123.901 24.5715H123.018V23.7403H123.901V24.5715ZM123.901 24.9611V28.3117H123.018V24.9611H123.901Z" fill="white"/>
<path d="M128.262 28.3377H127.379V26.2858C127.379 26.052 127.379 25.6105 126.808 25.6105C126.419 25.6105 126.107 25.8702 126.107 26.3897V28.3117H125.224V24.9611H126.081V25.4546C126.211 25.2468 126.445 24.8832 127.094 24.8832C127.743 24.8832 128.262 25.2728 128.262 26.0001V28.3377Z" fill="white"/>
<path d="M132.649 24.9611V28.1559C132.649 28.7273 132.597 29.7143 130.962 29.7143C130.261 29.7143 129.534 29.4286 129.508 28.7013H130.469C130.494 28.8832 130.572 29.039 131.092 29.039C131.559 29.039 131.792 28.8052 131.792 28.2598V27.8442C131.637 28.1039 131.429 28.3377 130.884 28.3377C130.079 28.3377 129.43 27.7663 129.43 26.5974C129.43 25.4286 130.079 24.8572 130.832 24.8572C131.455 24.8572 131.715 25.2208 131.818 25.4546V24.9611H132.649ZM131.014 27.6104C131.611 27.6104 131.767 27.0909 131.767 26.6494C131.767 26.1039 131.507 25.6624 131.014 25.6624C130.676 25.6624 130.313 25.8961 130.313 26.6754C130.313 27.0909 130.494 27.6104 131.014 27.6104Z" fill="white"/>
<path d="M139.087 25.2727C139.009 25.013 138.854 24.4935 138.075 24.4935C137.608 24.4935 136.959 24.8052 136.959 26.0779C136.959 26.8831 137.27 27.6364 138.075 27.6364C138.594 27.6364 138.958 27.3507 139.087 26.7792H140.022C139.84 27.7663 139.191 28.4416 138.049 28.4416C136.855 28.4416 135.972 27.6364 135.972 26.052C135.972 24.4675 136.881 23.6624 138.049 23.6624C139.399 23.6624 139.944 24.5974 139.996 25.2727H139.087Z" fill="white"/>
<path d="M142.67 28.4156C141.761 28.4156 140.957 27.8702 140.957 26.6494C140.957 25.4286 141.761 24.8832 142.67 24.8832C143.579 24.8832 144.383 25.4286 144.383 26.6494C144.383 27.8702 143.579 28.4156 142.67 28.4156ZM142.67 25.6105C141.995 25.6105 141.865 26.2079 141.865 26.6234C141.865 27.065 141.995 27.6364 142.67 27.6364C143.345 27.6364 143.475 27.039 143.475 26.6234C143.475 26.2079 143.371 25.6105 142.67 25.6105Z" fill="white"/>
<path d="M146.435 28.3377H145.5V27.4286H146.435V28.3377Z" fill="white"/>
<path d="M148.745 27.5065H151.003V28.3377H147.81V23.7922H148.745V27.5065Z" fill="white"/>
<path d="M153.029 24.9611H153.574V25.5844H153.029V27.4026C153.029 27.6104 153.029 27.6624 153.392 27.6624C153.444 27.6624 153.522 27.6624 153.574 27.6624V28.3377C153.444 28.3377 153.289 28.3377 153.159 28.3377H153.055C152.302 28.3377 152.146 28.052 152.146 27.6104V25.5585H151.678V24.9351H152.146V24.026H153.029V24.9611Z" fill="white"/>
<path d="M157.701 28.3377H156.844V27.9221C156.637 28.3117 156.247 28.4416 155.884 28.4416C154.897 28.4416 154.482 27.5585 154.482 26.6234C154.482 25.4546 155.131 24.8831 155.884 24.8831C156.455 24.8831 156.715 25.1948 156.844 25.4026V23.7922H157.727V28.3377H157.701ZM156.066 27.6883C156.637 27.6883 156.844 27.2208 156.844 26.7273C156.844 26.1818 156.689 25.6364 156.091 25.6364C155.52 25.6364 155.339 26.1299 155.339 26.6754C155.339 27.065 155.494 27.6883 156.066 27.6883Z" fill="white"/>
</svg>
