<?xml version="1.0" encoding="utf-8"?>
<!-- Generator: Adobe Illustrator 24.1.1, SVG Export Plug-In . SVG Version: 6.00 Build 0)  -->
<svg version="1.1" id="圖層_1" xmlns="http://www.w3.org/2000/svg" xmlns:xlink="http://www.w3.org/1999/xlink" x="0px" y="0px"
	 viewBox="0 0 50 50" style="enable-background:new 0 0 50 50;" xml:space="preserve">
<style type="text/css">
	.st0{fill:#00263D;}
</style>
<g>
	<path class="st0" d="M7.9,42h2.2V26.3h5.3v-1.9H2.6v1.9h5.3V42z M24.5,42.3c4.4,0,7.5-3.5,7.5-9.2s-3.1-9.1-7.5-9.1
		S17,27.5,17,33.1S20.1,42.3,24.5,42.3z M24.5,40.4c-3.2,0-5.2-2.8-5.2-7.2c0-4.4,2.1-7.1,5.2-7.1c3.1,0,5.2,2.7,5.2,7.1
		C29.7,37.5,27.6,40.4,24.5,40.4z M35.8,42H38v-7h2.9c3.8,0,6.5-1.7,6.5-5.4c0-3.8-2.6-5.2-6.6-5.2h-5V42z M38,33.2v-7h2.5
		c3.1,0,4.7,0.8,4.7,3.4c0,2.5-1.5,3.6-4.6,3.6H38z"/>
	<path class="st0" d="M20.8,14l3.9-3.9l3.9,3.9c0.4,0.4,1,0.4,1.4,0c0.4-0.4,0.4-1,0-1.4L25.4,8c-0.2-0.2-0.4-0.3-0.7-0.3
		c-0.3,0-0.5,0.1-0.7,0.3l-4.6,4.6c-0.4,0.4-0.4,1,0,1.4C19.8,14.4,20.4,14.4,20.8,14z"/>
</g>
</svg>
