<?xml version="1.0" encoding="utf-8"?>
<!-- Generator: Adobe Illustrator 24.1.1, SVG Export Plug-In . SVG Version: 6.00 Build 0)  -->
<svg version="1.1" id="圖層_1" xmlns="http://www.w3.org/2000/svg" xmlns:xlink="http://www.w3.org/1999/xlink" x="0px" y="0px"
	 viewBox="0 0 1920 100" style="enable-background:new 0 0 1920 100;" xml:space="preserve">
<style type="text/css">
	.st0{fill:#FFFFFF;}
</style>
<g>
	<path class="st0" d="M431.5,78.6c-71.1,0-138.8-2.6-202.2-7.7C76.6,58.7,0.7,35.7,0,35.4v-2.9C0.7,32.7,77.3,55.7,229.7,68
		c140.6,11.2,377.8,15.4,708.5-28.8c146.2-19.5,288.8-31.9,423.6-36.8c108-3.9,211.3-3.1,307.2,2.5c163.2,9.6,249.9,29.7,250.8,29.9
		v2.9c-0.8-0.2-88.1-20.4-251.1-29.9C1518.3-1,1269.5-2.2,938.7,42C792.4,61.7,652.2,73.5,521.7,77.3
		C491.1,78.2,461,78.6,431.5,78.6z"/>
</g>
<g>
	<path class="st0" d="M411.7,92.6c-63.6,0-124.5-2.1-181.7-6.2C76.8,75.5,0.7,53.4,0,53.2v-4.8c0.7,0.2,77.9,22.2,230.6,33.1
		c140.9,10,378.3,12.4,709-33.2c146.2-20.2,288.8-32.8,423.5-37.4c107.9-3.7,211.1-2.3,306.8,4.2c163,10.9,249.1,33,250,33.3v4.8
		c-0.8-0.2-88-22.2-250.5-33.1C1519.3,10,1271,7.6,940.3,53.2C794,73.4,653.6,86.1,522.9,90.6C485.1,91.9,447.9,92.6,411.7,92.6z"/>
</g>
<g>
	<path class="st0" d="M938,55.7c640.8-88.5,981.9,1,981.9,1V100H0V57.2C0,57.2,297.2,144.3,938,55.7z"/>
</g>
</svg>
