<?xml version="1.0" encoding="utf-8"?>
<!-- Generator: Adobe Illustrator 24.1.1, SVG Export Plug-In . SVG Version: 6.00 Build 0)  -->
<svg version="1.1" id="圖層_1" xmlns="http://www.w3.org/2000/svg" xmlns:xlink="http://www.w3.org/1999/xlink" x="0px" y="0px"
	 viewBox="0 0 1920 100" style="enable-background:new 0 0 1920 100;" xml:space="preserve">
<style type="text/css">
	.st0{fill:url(#SVGID_1_);}
	.st1{opacity:0.5;}
	.st2{fill:url(#SVGID_2_);}
	.st3{opacity:0.25;}
	.st4{fill:url(#SVGID_3_);}
</style>
<g>
	<g>
		
			<linearGradient id="SVGID_1_" gradientUnits="userSpaceOnUse" x1="1.406857e-02" y1="34.558" x2="1919.9865" y2="42.5544" gradientTransform="matrix(1 0 0 -1 0 100.811)">
			<stop  offset="0" style="stop-color:#4FA8FF;stop-opacity:0"/>
			<stop  offset="0.526" style="stop-color:#4FA8FF"/>
			<stop  offset="1" style="stop-color:#4FA8FF;stop-opacity:0"/>
		</linearGradient>
		<path class="st0" d="M441.1,100c-66.3,0-130.2-1.9-191.1-5.8C87.3,83.9,0.8,63.1,0,62.9v-1.4c0.8,0.2,87.5,21,250.2,31.3
			c150.1,9.5,398.4,11.8,729.2-31.3c146.1-19,286.4-30.9,416.9-35.2c104.4-3.5,202.9-2.1,292.7,3.9c152.9,10.3,230.3,31.1,231,31.3
			v1.3c-0.7-0.2-78.5-21-231.2-31.3c-141-9.5-378.5-11.8-709.2,31.3c-146.1,19-288.5,30.9-423.2,35.2
			C517.3,99.4,478.8,100,441.1,100z"/>
	</g>
	<g class="st1">
		
			<linearGradient id="SVGID_2_" gradientUnits="userSpaceOnUse" x1="9.364523e-02" y1="42.7812" x2="1919.9095" y2="62.2685" gradientTransform="matrix(1 0 0 -1 0 100.811)">
			<stop  offset="0" style="stop-color:#4FA8FF;stop-opacity:0"/>
			<stop  offset="0.5052" style="stop-color:#4FA8FF"/>
			<stop  offset="1" style="stop-color:#4FA8FF;stop-opacity:0"/>
		</linearGradient>
		<path class="st2" d="M442.1,85.9c-66.3,0-130.2-1.9-191.1-5.8C88.3,69.8,0.8,49,0,48.8v-1.4c0.8,0.2,88.5,21,251.2,31.3
			c150.1,9.5,398.4,11.8,729.2-31.3c146.1-19,286.4-30.9,416.9-35.2c104.4-3.5,202.9-2.1,292.7,3.9c152.9,10.3,229.3,31.1,230,31.3
			v1.3c-0.7-0.2-77.5-21-230.2-31.3c-141-9.5-378.5-11.8-709.2,31.3C834.5,67.9,692.1,79.7,557.4,84
			C518.3,85.3,479.8,85.9,442.1,85.9z"/>
	</g>
	<g class="st3">
		
			<linearGradient id="SVGID_3_" gradientUnits="userSpaceOnUse" x1="23.186" y1="63.0056" x2="1919.7855" y2="63.0057" gradientTransform="matrix(1 0 0 -1 0 100.811)">
			<stop  offset="0" style="stop-color:#4FA8FF;stop-opacity:0"/>
			<stop  offset="0.5313" style="stop-color:#4FA8FF"/>
			<stop  offset="1" style="stop-color:#4FA8FF;stop-opacity:0"/>
		</linearGradient>
		<path class="st4" d="M442.1,75.6c-66.3,0-130.2-1.9-191.1-5.8C88.3,59.5,0.8,38.7,0,38.5v-1.4c0.8,0.2,88.5,21,251.2,31.3
			c150.1,9.5,398.4,11.8,729.2-31.3c146.1-19,286.4-30.9,416.9-35.2c104.4-3.5,202.9-2.1,292.7,3.9c152.9,10.3,229.3,31.1,230,31.3
			v1.3c-0.7-0.2-77.5-21-230.2-31.3c-141-9.5-378.5-11.8-709.2,31.3c-146.1,19-288.5,30.9-423.2,35.2
			C518.3,75,479.8,75.6,442.1,75.6z"/>
	</g>
</g>
</svg>
